<svg width="1220" height="183" viewBox="0 0 1220 183" fill="none" xmlns="http://www.w3.org/2000/svg">
<path d="M168.61 116.82V155H140.888V60.38H168.942L194.008 98.56C197.771 104.204 200.648 108.963 202.64 112.836H203.138V96.9V60.38H230.694V155H202.474L176.744 115.16L169.274 103.872H168.776L168.61 116.82ZM246.24 60.38H315.13V80.3H276.12V97.564H308.988V115.492H276.12V134.748H314.964V155H246.24V60.38ZM383.576 155H346.226L321.824 60.38H353.696L366.312 129.934H367.142L380.588 60.38H411.796L425.574 129.934H426.072L438.854 60.38H469.398L444.996 155H407.812L396.524 94.576H395.528L383.576 155ZM609.695 134.25H582.139L577.159 155H546.615L577.159 60.38H616.169L645.385 155H614.675L609.695 134.25ZM595.751 80.798L585.957 115.824H605.711L596.415 80.798H595.751ZM739.794 155H708.42L702.776 131.096C702.555 130.211 702.167 128.717 701.614 126.614C701.171 124.401 700.618 122.796 699.954 121.8C699.29 120.693 698.349 119.974 697.132 119.642C694.033 119.753 689.496 119.808 683.52 119.808V155H653.64V61.21C667.031 60.214 679.536 59.716 691.156 59.716C701.669 59.716 710.191 60.6013 716.72 62.372C723.249 64.032 728.119 66.9647 731.328 71.17C734.648 75.2647 736.308 80.9087 736.308 88.102C736.308 94.8527 734.759 100.165 731.66 104.038C728.561 107.801 723.581 110.069 716.72 110.844V111.84C720.593 112.172 723.803 113.445 726.348 115.658C729.004 117.761 730.775 120.472 731.66 123.792L739.794 155ZM683.52 101.05C684.516 101.161 686.453 101.216 689.33 101.216C697.851 101.216 702.831 100.497 704.27 99.058C705.598 97.73 706.262 94.6313 706.262 89.762C706.262 85.2247 705.045 82.126 702.61 80.466C700.286 78.806 696.413 77.976 690.99 77.976C689.773 77.976 687.283 78.0867 683.52 78.308V101.05ZM799.567 155H769.687V81.13H742.961V60.38H826.293V81.13H799.567V155ZM836.017 60.38H865.897V155H836.017V60.38ZM909.924 85.944C909.924 88.268 911.086 90.094 913.41 91.422C915.845 92.75 919.608 94.1887 924.698 95.738C930.785 97.73 935.765 99.6667 939.638 101.548C943.622 103.429 947.053 106.362 949.93 110.346C952.918 114.33 954.412 119.531 954.412 125.95C954.412 146.534 941.022 156.826 914.24 156.826C909.814 156.826 904.391 156.439 897.972 155.664C891.664 154.889 885.91 153.893 880.708 152.676C880.93 150.352 881.372 146.977 882.036 142.55C882.811 138.013 883.53 134.637 884.194 132.424C888.068 132.977 893.878 133.641 901.624 134.416C909.482 135.191 915.402 135.578 919.386 135.578C921.71 135.578 923.094 135.412 923.536 135.08C924.2 134.637 924.698 133.918 925.03 132.922C925.473 131.815 925.694 130.875 925.694 130.1C925.694 127.887 924.643 126.227 922.54 125.12C920.438 123.903 916.841 122.464 911.75 120.804C905.664 118.923 900.628 116.986 896.644 114.994C892.66 113.002 889.174 109.903 886.186 105.698C883.198 101.493 881.704 95.9593 881.704 89.098C881.704 84.2287 882.811 79.47 885.024 74.822C887.238 70.0633 889.506 66.854 891.83 65.194C893.601 63.9767 897.253 62.8147 902.786 61.708C908.32 60.6013 913.521 60.048 918.39 60.048C930.785 60.048 940.911 61.21 948.768 63.534C948.658 65.7473 948.27 68.7907 947.606 72.664C947.053 76.5373 946.444 80.0787 945.78 83.288L941.962 83.122C927.576 82.126 918.39 81.628 914.406 81.628C912.746 81.628 911.806 81.6833 911.584 81.794C911.142 82.0153 910.754 82.5133 910.422 83.288C910.09 84.0627 909.924 84.948 909.924 85.944ZM1015.82 155H985.941V81.13H959.215V60.38H1042.55V81.13H1015.82V155ZM1054.93 117.484C1054.71 108.409 1053.93 90.0387 1052.6 62.372L1052.1 50.918L1079 49.424C1079.11 51.6373 1079.16 54.902 1079.16 59.218C1079.16 70.7273 1078.61 84.3393 1077.5 100.054C1077.06 107.137 1076.78 111.674 1076.67 113.666C1071.36 116.654 1064.39 118.203 1055.76 118.314L1054.93 117.484ZM1065.38 155.996C1061.73 155.996 1058.69 154.834 1056.25 152.51C1053.93 150.075 1052.77 146.811 1052.77 142.716C1052.77 139.175 1053.99 136.187 1056.42 133.752C1058.97 131.317 1062.06 130.1 1065.72 130.1C1069.26 130.1 1072.19 131.317 1074.51 133.752C1076.95 136.187 1078.17 139.175 1078.17 142.716C1078.17 146.811 1077 150.075 1074.68 152.51C1072.36 154.834 1069.26 155.996 1065.38 155.996Z" fill="black"/>
<g clip-path="url(#clip0_143_212)">
<path d="M566.024 104.035C554.451 106.207 545.092 110.533 537.535 116.119C527.166 123.784 520.271 133.763 515.686 143.626C511.524 152.578 509.247 161.474 508.002 168.542C506.76 161.474 504.486 152.578 500.326 143.626C495.743 133.763 488.848 123.784 478.478 116.119C470.919 110.532 461.557 106.207 449.979 104.034C461.551 101.843 470.91 97.505 478.466 91.9105C488.834 84.2344 495.729 74.2524 500.314 64.3896C504.479 55.4311 506.756 46.5328 508 39.466C509.244 46.5328 511.521 55.4311 515.686 64.3896C520.271 74.2524 527.166 84.2344 537.534 91.9105C545.091 97.5054 554.451 101.844 566.024 104.035Z" fill="#02FF02" stroke="black" stroke-width="3"/>
</g>
<defs>
<clipPath id="clip0_143_212">
<rect width="144" height="158" fill="white" transform="translate(436 25)"/>
</clipPath>
</defs>
</svg>
