<svg width="1220" height="138" viewBox="0 0 1220 138" fill="none" xmlns="http://www.w3.org/2000/svg">
<path d="M424.429 133.568C421.271 134.933 417.602 135.915 413.421 136.512C409.239 137.109 405.357 137.408 401.773 137.408C390.167 137.408 381.079 134.379 374.509 128.32C367.938 122.261 364.653 112.96 364.653 100.416C364.653 87.616 368.109 78.0587 375.021 71.744C381.933 65.344 391.661 62.144 404.205 62.144C410.178 62.144 416.407 62.9547 422.893 64.576C422.893 66.2827 422.722 68.8427 422.381 72.256C422.039 75.584 421.698 77.9307 421.357 79.296H413.293C407.405 79.296 402.754 79.424 399.341 79.68C396.013 79.8507 394.007 80.2347 393.325 80.832C392.045 82.0267 391.063 84.4587 390.381 88.128C389.698 91.712 389.357 95.168 389.357 98.496C389.357 104.299 390.082 108.779 391.533 111.936C392.983 115.008 394.818 117.056 397.037 118.08C399.17 119.104 402.711 119.616 407.661 119.616C411.586 119.616 416.706 119.275 423.021 118.592L424.429 133.568ZM468.422 137.664C455.707 137.664 446.15 134.677 439.75 128.704C433.435 122.645 430.278 112.96 430.278 99.648C430.278 86.592 433.776 77.0773 440.774 71.104C447.771 65.1307 457.03 62.144 468.55 62.144C492.784 62.144 504.902 74.2187 504.902 98.368C504.902 110.571 501.915 120.171 495.942 127.168C490.054 134.165 480.88 137.664 468.422 137.664ZM467.91 122.56C470.299 122.56 472.304 122.176 473.926 121.408C475.547 120.555 476.827 119.104 477.766 117.056C479.558 113.557 480.454 107.84 480.454 99.904C480.454 92.1387 479.558 86.5067 477.766 83.008C475.974 79.424 472.688 77.5467 467.91 77.376C466.118 77.376 464.24 77.5893 462.278 78.016C460.4 78.3573 459.206 78.8693 458.694 79.552C457.67 80.7467 456.859 83.3067 456.262 87.232C455.75 91.072 455.494 95.296 455.494 99.904C455.494 107.072 456.176 112.32 457.542 115.648C458.48 118.123 459.803 119.915 461.51 121.024C463.216 122.048 465.35 122.56 467.91 122.56ZM536.464 106.56V136H515.088V63.04H536.72L556.048 92.48C558.949 96.832 561.168 100.501 562.704 103.488H563.088V91.2V63.04H584.336V136H562.576L542.736 105.28L536.976 96.576H536.592L536.464 106.56ZM617.955 82.752C617.955 84.544 618.851 85.952 620.643 86.976C622.52 88 625.421 89.1093 629.347 90.304C634.04 91.84 637.88 93.3333 640.867 94.784C643.939 96.2347 646.584 98.496 648.803 101.568C651.107 104.64 652.259 108.651 652.259 113.6C652.259 129.472 641.933 137.408 621.283 137.408C617.869 137.408 613.688 137.109 608.739 136.512C603.875 135.915 599.437 135.147 595.427 134.208C595.597 132.416 595.939 129.813 596.451 126.4C597.048 122.901 597.603 120.299 598.115 118.592C601.101 119.019 605.581 119.531 611.555 120.128C617.613 120.725 622.179 121.024 625.251 121.024C627.043 121.024 628.109 120.896 628.451 120.64C628.963 120.299 629.347 119.744 629.603 118.976C629.944 118.123 630.115 117.397 630.115 116.8C630.115 115.093 629.304 113.813 627.683 112.96C626.061 112.021 623.288 110.912 619.363 109.632C614.669 108.181 610.787 106.688 607.715 105.152C604.643 103.616 601.955 101.227 599.651 97.984C597.347 94.7413 596.195 90.4747 596.195 85.184C596.195 81.4293 597.048 77.76 598.755 74.176C600.461 70.5067 602.211 68.032 604.003 66.752C605.368 65.8133 608.184 64.9173 612.451 64.064C616.717 63.2107 620.728 62.784 624.483 62.784C634.04 62.784 641.848 63.68 647.907 65.472C647.821 67.1787 647.523 69.5253 647.011 72.512C646.584 75.4987 646.115 78.2293 645.603 80.704L642.659 80.576C631.565 79.808 624.483 79.424 621.411 79.424C620.131 79.424 619.405 79.4667 619.235 79.552C618.893 79.7227 618.595 80.1067 618.339 80.704C618.083 81.3013 617.955 81.984 617.955 82.752ZM662.198 63.04H715.318V78.4H685.238V91.712H710.582V105.536H685.238V120.384H715.19V136H662.198V63.04ZM791.52 136H767.328L762.976 117.568C762.805 116.885 762.506 115.733 762.08 114.112C761.738 112.405 761.312 111.168 760.8 110.4C760.288 109.547 759.562 108.992 758.624 108.736C756.234 108.821 752.736 108.864 748.128 108.864V136H725.088V63.68C735.413 62.912 745.056 62.528 754.016 62.528C762.122 62.528 768.693 63.2107 773.728 64.576C778.762 65.856 782.517 68.1173 784.992 71.36C787.552 74.5173 788.832 78.8693 788.832 84.416C788.832 89.6213 787.637 93.7173 785.248 96.704C782.858 99.6053 779.018 101.355 773.728 101.952V102.72C776.714 102.976 779.189 103.957 781.152 105.664C783.2 107.285 784.565 109.376 785.248 111.936L791.52 136ZM748.128 94.4C748.896 94.4853 750.389 94.528 752.608 94.528C759.178 94.528 763.018 93.9733 764.128 92.864C765.152 91.84 765.664 89.4507 765.664 85.696C765.664 82.1973 764.725 79.808 762.848 78.528C761.056 77.248 758.069 76.608 753.888 76.608C752.949 76.608 751.029 76.6933 748.128 76.864V94.4ZM837.61 136H814.57V79.04H793.962V63.04H858.218V79.04H837.61V136Z" fill="black"/>
<g clip-path="url(#clip0_192_385)">
<path d="M933.674 68.0289C924.014 69.963 916.143 73.6013 909.741 78.2569C900.637 84.8777 894.583 93.4967 890.559 102.012C887.104 109.323 885.13 116.589 884.002 122.517C882.877 116.589 880.905 109.323 877.451 102.012C873.429 93.4967 867.376 84.8777 858.27 78.2569C851.867 73.6009 843.993 69.9624 834.329 68.0284C843.988 66.0795 851.858 62.431 858.26 57.7686C867.364 51.1382 873.417 42.5164 877.441 34.0016C880.899 26.6854 882.873 19.4164 884 13.4886C885.127 19.4164 887.101 26.6854 890.559 34.0016C894.583 42.5164 900.636 51.1382 909.74 57.7686C916.142 62.4314 924.013 66.0801 933.674 68.0289Z" fill="#02FF02" stroke="black" stroke-width="3"/>
</g>
<defs>
<clipPath id="clip0_192_385">
<rect width="126" height="136" fill="white" transform="translate(821)"/>
</clipPath>
</defs>
</svg>
