<svg width="137" height="133" viewBox="0 0 137 133" fill="none" xmlns="http://www.w3.org/2000/svg">
<g clip-path="url(#clip0_143_128)">
<path d="M107 36.5004C100.668 34.7672 94.3369 33.8955 88.0054 33.252C85.0881 32.9718 82.1709 32.7642 79.2644 32.6189C81.1228 24.8976 86.8169 19.3972 86.8709 19.3453C86.8169 19.3972 81.0904 24.8664 73.0517 26.6515C72.9005 23.8494 72.6844 21.0473 72.3927 18.2556C71.712 12.174 70.8152 6.09235 69.0108 0.0107422C67.2064 6.09235 66.2988 12.174 65.6289 18.2556C65.3264 21.1614 65.1103 24.0673 64.9483 26.9732C61.0262 26.3713 56.8664 24.5862 52.739 20.8812C56.5962 24.8457 58.4655 28.8205 59.0921 32.5878C56.0668 32.7331 53.0415 32.951 50.0162 33.2416C43.6847 33.8851 37.3531 34.7568 31.0216 36.5107C37.3531 38.2543 43.6847 39.126 50.0162 39.7799C52.9335 40.0601 55.8507 40.2676 58.7572 40.4129C56.8988 48.1239 51.2047 53.6243 51.1507 53.6762C51.2047 53.6243 56.9312 48.155 64.9591 46.37C65.1103 49.1721 65.3264 51.9742 65.6181 54.7659C66.288 60.8475 67.1956 66.9291 69.0216 73.0107C70.8368 66.9291 71.7444 60.8475 72.4251 54.7659C72.7276 51.8601 72.9437 48.9542 73.1058 46.0483C77.0279 46.6502 81.1661 48.4456 85.2934 52.1506C81.4362 48.1862 79.5778 44.1906 78.9511 40.4233C81.9764 40.278 85.0017 40.0601 88.027 39.7695C94.3585 39.1157 100.69 38.2543 107.022 36.5211L107 36.5004Z" fill="#02FF02"/>
</g>
<path d="M1.9375 114.797C1.9375 114 2.07031 113.18 2.33594 112.336C3.67969 111.961 4.9375 111.781 6.10938 111.797C5.8125 108.75 5.5625 105.422 5.35938 101.812C5.15625 98.1875 5.01562 94.8438 4.9375 91.7812H4.91406L1.5625 91.2891C1.35938 90.7109 1.20312 90.0703 1.09375 89.3672C0.984375 88.6641 0.929688 87.9844 0.929688 87.3281C0.929688 86.8281 0.96875 86.2812 1.04688 85.6875C2.71875 84.9531 5.34375 84.4375 8.92188 84.1406C12.5 83.8281 16.0547 83.6719 19.5859 83.6719C21.9609 83.6719 23.9766 83.8594 25.6328 84.2344C27.2891 84.6094 28.6719 85.4609 29.7812 86.7891C30.9062 88.1016 31.4688 90.0703 31.4688 92.6953C31.4688 97.5547 30.2969 103.93 27.9531 111.82C27.5625 113.117 27.125 114.281 26.6406 115.312C26.1562 116.344 25.5391 117.234 24.7891 117.984C24.1484 118.703 23.4844 119.25 22.7969 119.625C22.125 119.984 21.3125 120.164 20.3594 120.164C19.875 120.164 19.2188 120.086 18.3906 119.93C17.3594 119.727 16.4453 119.469 15.6484 119.156C14.8516 118.828 14.1875 118.5 13.6562 118.172C13.1406 117.844 12.5234 117.43 11.8047 116.93C11.4922 117.383 10.9688 117.883 10.2344 118.43C9.51562 118.977 8.71875 119.445 7.84375 119.836C6.96875 120.227 6.15625 120.438 5.40625 120.469C4.32812 120.062 3.47656 119.344 2.85156 118.312C2.24219 117.266 1.9375 116.094 1.9375 114.797ZM19.9844 111.609C20.4219 109.453 20.7656 106.953 21.0156 104.109C21.2656 101.25 21.4766 98.1641 21.6484 94.8516L21.7422 93.1875C21.6484 93.0156 21.2656 92.8438 20.5938 92.6719C19.9375 92.5 19.0703 92.4141 17.9922 92.4141L16.1641 92.3906C15.2891 92.3906 14.5859 92.4297 14.0547 92.5078C14.0547 93.1641 14.0625 93.7188 14.0781 94.1719C14.125 96.8906 14.1484 99.3203 14.1484 101.461C14.1484 103.945 14.125 107.477 14.0781 112.055C16.125 112.055 18.0938 111.906 19.9844 111.609ZM36.9062 118.852C36.9062 118.18 36.875 116.188 36.8125 112.875C36.6875 108.031 36.625 103.844 36.625 100.312C36.625 96.8594 36.6875 93.9375 36.8125 91.5469L32.9922 91.0547C32.7578 90.1016 32.6016 89.3125 32.5234 88.6875C32.4453 88.0469 32.4141 87.3125 32.4297 86.4844C32.7422 86.0938 33.3203 85.6797 34.1641 85.2422C35.0234 84.7891 35.9922 84.4141 37.0703 84.1172C38.1641 83.8203 39.2188 83.6719 40.2344 83.6719C42.0469 83.6719 43.5234 84.0781 44.6641 84.8906C45.8203 85.7031 46.4297 86.875 46.4922 88.4062C46.5234 89.3125 46.5391 90.0859 46.5391 90.7266C46.5391 93.6797 46.4141 97.2422 46.1641 101.414C45.9141 105.57 45.5781 110.484 45.1562 116.156L44.9219 119.461C43.6875 120.148 42.2812 120.492 40.7031 120.492C39.3594 120.492 38.0938 120.25 36.9062 119.766V118.852ZM50.5469 114.867C50.5469 114.07 50.6953 113.266 50.9922 112.453C51.2891 111.641 51.75 110.875 52.375 110.156C54.6562 111.156 56.6406 111.922 58.3281 112.453C60.0312 112.984 61.7812 113.25 63.5781 113.25C63.9062 113.25 64.2422 113.219 64.5859 113.156C64.9453 113.094 65.2266 113.008 65.4297 112.898C65.5078 112.727 65.5703 112.508 65.6172 112.242C65.6641 111.961 65.6875 111.734 65.6875 111.562C65.6875 110.797 65.3203 110.141 64.5859 109.594C63.8516 109.047 62.8828 108.5 61.6797 107.953L60.8594 107.555C58.5156 106.352 56.6328 105.273 55.2109 104.32C53.8047 103.352 52.6094 102.086 51.625 100.523C50.6562 98.9453 50.1719 97.0156 50.1719 94.7344C50.1719 91.3906 51.1016 88.7109 52.9609 86.6953C54.8359 84.6797 57.8125 83.6719 61.8906 83.6719C65.375 83.6719 68.1328 83.8828 70.1641 84.3047C71.0078 84.8047 71.7422 85.3281 72.3672 85.875C73.0078 86.4062 73.6172 87.0547 74.1953 87.8203C74.1953 88.9141 74.0859 90.1016 73.8672 91.3828C73.6641 92.6484 73.375 93.8125 73 94.875C72.6406 95.9375 72.25 96.7031 71.8281 97.1719C71.4688 97.3438 71.0703 97.4766 70.6328 97.5703C70.1953 97.6484 69.6562 97.6875 69.0156 97.6875C68.3438 97.6875 67.7969 97.6406 67.375 97.5469C66.9531 97.4531 66.5625 97.2969 66.2031 97.0781L65.4766 92.2031C64.5703 91.9531 63.6094 91.7734 62.5938 91.6641C61.5781 91.5391 60.8906 91.4844 60.5312 91.5C59.9531 91.7656 59.5547 92.1406 59.3359 92.625C59.1328 93.0938 59.0312 93.6562 59.0312 94.3125C59.0312 95.0156 59.2188 95.625 59.5938 96.1406C59.9844 96.6406 60.4531 97.0547 61 97.3828C61.5469 97.7109 62.25 98.0781 63.1094 98.4844L64.1406 99C66.375 100.172 68.1328 101.195 69.4141 102.07C70.6953 102.945 71.7656 104.055 72.625 105.398C73.5 106.727 73.9375 108.336 73.9375 110.227C73.9375 112.43 73.3594 114.328 72.2031 115.922C71.0469 117.5 69.5625 118.641 67.75 119.344C66.7656 119.734 65.6797 120.016 64.4922 120.188C63.3047 120.359 61.9297 120.445 60.3672 120.445C59.3047 120.445 58.1641 120.312 56.9453 120.047C55.7266 119.781 54.5391 119.312 53.3828 118.641C52.2422 117.969 51.3281 117.07 50.6406 115.945C50.5781 115.648 50.5469 115.289 50.5469 114.867ZM76.5625 102.094C76.5625 98.5469 77.0859 95.3906 78.1328 92.625C79.1953 89.8438 80.8516 87.6484 83.1016 86.0391C85.3516 84.4297 88.1953 83.625 91.6328 83.625C93.9766 83.625 96.4531 83.9297 99.0625 84.5391C99.9062 85.0391 100.641 85.5625 101.266 86.1094C101.906 86.6406 102.516 87.2891 103.094 88.0547C103.094 89.1641 102.945 90.6406 102.648 92.4844C102.352 94.3125 101.977 96.0234 101.523 97.6172C101.086 99.1953 100.664 100.219 100.258 100.688C99.8516 100.891 99.5078 101.031 99.2266 101.109C98.9453 101.172 98.5078 101.203 97.9141 101.203C97.1797 101.203 96.4922 101.148 95.8516 101.039C95.2109 100.93 94.7266 100.781 94.3984 100.594L93.5781 92.6953C92.4688 92.3828 90.9297 92.2266 88.9609 92.2266C88.4297 92.2266 88.0391 92.2344 87.7891 92.25C87.1172 94.4062 86.7422 97.3047 86.6641 100.945C86.6484 101.383 86.6406 102.047 86.6406 102.938C86.6406 105.031 86.75 106.727 86.9688 108.023C87.1719 109.242 87.3906 110.156 87.625 110.766C87.8594 111.375 88.2656 111.844 88.8438 112.172C89.4375 112.5 90.3203 112.664 91.4922 112.664C93.0703 112.664 94.5234 112.438 95.8516 111.984C97.1953 111.516 98.6562 110.836 100.234 109.945C100.828 110.586 101.281 111.109 101.594 111.516C101.922 111.922 102.219 112.422 102.484 113.016C102.766 113.609 102.953 114.289 103.047 115.055C102.797 115.57 102.133 116.258 101.055 117.117C99.9766 117.977 98.5625 118.75 96.8125 119.438C95.0625 120.125 93.1016 120.469 90.9297 120.469C85.8516 120.469 82.1875 118.883 79.9375 115.711C77.6875 112.539 76.5625 108 76.5625 102.094ZM105.414 102.281C105.414 89.875 110.289 83.6719 120.039 83.6719C123.898 83.6719 126.906 84.4766 129.062 86.0859C131.234 87.6797 132.727 89.8359 133.539 92.5547C134.367 95.2578 134.781 98.5 134.781 102.281C134.781 107.844 133.641 112.266 131.359 115.547C129.078 118.828 125.305 120.469 120.039 120.469C114.742 120.469 110.977 118.844 108.742 115.594C106.523 112.344 105.414 107.906 105.414 102.281ZM121.211 112.992C122.492 112.992 123.227 112.922 123.414 112.781C123.805 112.094 124.102 110.898 124.305 109.195C124.508 107.477 124.609 105.555 124.609 103.43C124.609 101.195 124.5 99.125 124.281 97.2188C124.078 95.2969 123.789 93.9531 123.414 93.1875C123.023 92.875 122.445 92.6406 121.68 92.4844C120.914 92.3281 120.07 92.2422 119.148 92.2266C118.617 92.2266 118.133 92.2578 117.695 92.3203C117.273 92.3672 116.969 92.4453 116.781 92.5547C116.328 93.3359 115.992 94.4688 115.773 95.9531C115.57 97.4219 115.469 99.1016 115.469 100.992C115.469 103.133 115.586 105.266 115.82 107.391C116.055 109.516 116.344 111.141 116.688 112.266C116.906 112.5 117.461 112.68 118.352 112.805C119.242 112.93 120.195 112.992 121.211 112.992Z" fill="#02FF02"/>
<defs>
<clipPath id="clip0_143_128">
<rect width="76" height="73" fill="white" transform="translate(31)"/>
</clipPath>
</defs>
</svg>
