<svg width="1220" height="137" viewBox="0 0 1220 137" fill="none" xmlns="http://www.w3.org/2000/svg">
<path d="M368.519 62.04H420.871V77.912H391.559V92.376H415.751V106.328H391.559V135H368.519V62.04ZM428.01 62.04H481.13V77.4H451.05V90.712H476.394V104.536H451.05V119.384H481.002V135H428.01V62.04ZM511.892 81.752C511.892 83.544 512.788 84.952 514.58 85.976C516.457 87 519.359 88.1093 523.284 89.304C527.977 90.84 531.817 92.3333 534.804 93.784C537.876 95.2347 540.521 97.496 542.74 100.568C545.044 103.64 546.196 107.651 546.196 112.6C546.196 128.472 535.871 136.408 515.22 136.408C511.807 136.408 507.625 136.109 502.676 135.512C497.812 134.915 493.375 134.147 489.364 133.208C489.535 131.416 489.876 128.813 490.388 125.4C490.985 121.901 491.54 119.299 492.052 117.592C495.039 118.019 499.519 118.531 505.492 119.128C511.551 119.725 516.116 120.024 519.188 120.024C520.98 120.024 522.047 119.896 522.388 119.64C522.9 119.299 523.284 118.744 523.54 117.976C523.881 117.123 524.052 116.397 524.052 115.8C524.052 114.093 523.241 112.813 521.62 111.96C519.999 111.021 517.225 109.912 513.3 108.632C508.607 107.181 504.724 105.688 501.652 104.152C498.58 102.616 495.892 100.227 493.588 96.984C491.284 93.7413 490.132 89.4747 490.132 84.184C490.132 80.4293 490.985 76.76 492.692 73.176C494.399 69.5067 496.148 67.032 497.94 65.752C499.305 64.8133 502.121 63.9173 506.388 63.064C510.655 62.2107 514.665 61.784 518.42 61.784C527.977 61.784 535.785 62.68 541.844 64.472C541.759 66.1787 541.46 68.5253 540.948 71.512C540.521 74.4987 540.052 77.2293 539.54 79.704L536.596 79.576C525.503 78.808 518.42 78.424 515.348 78.424C514.068 78.424 513.343 78.4667 513.172 78.552C512.831 78.7227 512.532 79.1067 512.276 79.704C512.02 80.3013 511.892 80.984 511.892 81.752ZM593.547 135H570.507V78.04H549.899V62.04H614.155V78.04H593.547V135ZM621.653 62.04H644.693V135H621.653V62.04ZM699.89 62.04H724.21L704.498 135H671.09L651.25 62.04H675.698L687.474 119.128H688.114L699.89 62.04ZM769.265 119H748.017L744.177 135H720.625L744.177 62.04H774.257L796.785 135H773.105L769.265 119ZM758.513 77.784L750.961 104.792H766.193L759.025 77.784H758.513ZM802.894 62.04H825.934V118.104H855.758V135H802.894V62.04Z" fill="black"/>
<g clip-path="url(#clip0_192_386)">
<path d="M283.383 67.5281C293.015 65.591 300.867 61.9748 307.256 57.3559C316.36 50.774 322.414 42.2145 326.439 33.7601C329.898 26.4954 331.873 19.2775 333 13.3915C334.127 19.2775 336.102 26.4954 339.561 33.7601C343.586 42.2145 349.64 50.774 358.744 57.3559C365.134 61.9753 372.986 65.5917 382.62 67.5286C372.987 69.4511 365.135 73.0572 358.745 77.6695C349.64 84.2419 343.586 92.7985 339.561 101.253C336.104 108.513 334.13 115.728 333.002 121.615C331.876 115.728 329.904 108.513 326.449 101.253C322.426 92.7985 316.372 84.2418 307.266 77.6695C300.875 73.0567 293.02 69.4505 283.383 67.5281Z" fill="#02FF02" stroke="black" stroke-width="3"/>
</g>
<defs>
<clipPath id="clip0_192_386">
<rect width="126" height="135" fill="white" transform="translate(270)"/>
</clipPath>
</defs>
</svg>
