<svg width="76" height="73" viewBox="0 0 76 73" fill="none" xmlns="http://www.w3.org/2000/svg">
<g clip-path="url(#clip0_137_47)">
<path d="M76 36.5C69.6685 34.7668 63.3369 33.8951 57.0054 33.2516C54.0881 32.9714 51.1709 32.7639 48.2644 32.6186C50.1228 24.8972 55.8169 19.3968 55.8709 19.3449C55.8169 19.3968 50.0904 24.8661 42.0517 26.6511C41.9005 23.849 41.6844 21.0469 41.3927 18.2552C40.712 12.1736 39.8152 6.09198 38.0108 0.010376C36.2064 6.09198 35.2988 12.1736 34.6289 18.2552C34.3264 21.1611 34.1103 24.067 33.9483 26.9728C30.0262 26.3709 25.8664 24.5859 21.739 20.8809C25.5962 24.8453 27.4655 28.8202 28.0921 32.5874C25.0668 32.7327 22.0415 32.9507 19.0162 33.2413C12.6847 33.8847 6.35314 34.7565 0.0216064 36.5104C6.35314 38.2539 12.6847 39.1257 19.0162 39.7795C21.9335 40.0597 24.8507 40.2673 27.7572 40.4126C25.8988 48.1235 20.2047 53.624 20.1507 53.6759C20.2047 53.624 25.9312 48.1547 33.9591 46.3696C34.1103 49.1717 34.3264 51.9738 34.6181 54.7656C35.288 60.8472 36.1956 66.9288 38.0216 73.0104C39.8368 66.9288 40.7444 60.8472 41.4251 54.7656C41.7276 51.8597 41.9437 48.9538 42.1058 46.0479C46.0279 46.6498 50.1661 48.4453 54.2934 52.1503C50.4362 48.1858 48.5778 44.1902 47.9511 40.4229C50.9764 40.2777 54.0017 40.0597 57.027 39.7691C63.3585 39.1153 69.6901 38.2539 76.0216 36.5208L76 36.5Z" fill="black"/>
</g>
<defs>
<clipPath id="clip0_137_47">
<rect width="76" height="73" fill="white"/>
</clipPath>
</defs>
</svg>
