<svg width="1220" height="181" viewBox="0 0 1220 181" fill="none" xmlns="http://www.w3.org/2000/svg">
<path d="M116.411 97.82V136H88.6887V41.38H116.743L141.809 79.56C145.571 85.204 148.449 89.9627 150.441 93.836H150.939V77.9V41.38H178.495V136H150.275L124.545 96.16L117.075 84.872H116.577L116.411 97.82ZM194.04 41.38H262.93V61.3H223.92V78.564H256.788V96.492H223.92V115.748H262.764V136H194.04V41.38ZM331.377 136H294.027L269.625 41.38H301.497L314.113 110.934H314.943L328.389 41.38H359.597L373.375 110.934H373.873L386.655 41.38H417.199L392.797 136H355.613L344.325 75.576H343.329L331.377 136ZM588.87 136H557.496L551.852 112.096C551.631 111.211 551.243 109.717 550.69 107.614C550.247 105.401 549.694 103.796 549.03 102.8C548.366 101.693 547.425 100.974 546.208 100.642C543.109 100.753 538.572 100.808 532.596 100.808V136H502.716V42.21C516.107 41.214 528.612 40.716 540.232 40.716C550.745 40.716 559.267 41.6013 565.796 43.372C572.325 45.032 577.195 47.9647 580.404 52.17C583.724 56.2647 585.384 61.9087 585.384 69.102C585.384 75.8527 583.835 81.1647 580.736 85.038C577.637 88.8007 572.657 91.0693 565.796 91.844V92.84C569.669 93.172 572.879 94.4447 575.424 96.658C578.08 98.7607 579.851 101.472 580.736 104.792L588.87 136ZM532.596 82.05C533.592 82.1607 535.529 82.216 538.406 82.216C546.927 82.216 551.907 81.4967 553.346 80.058C554.674 78.73 555.338 75.6313 555.338 70.762C555.338 66.2247 554.121 63.126 551.686 61.466C549.362 59.806 545.489 58.976 540.066 58.976C538.849 58.976 536.359 59.0867 532.596 59.308V82.05ZM598.179 41.38H667.069V61.3H628.059V78.564H660.927V96.492H628.059V115.748H666.903V136H598.179V41.38ZM679.407 41.38H709.287V114.088H747.965V136H679.407V41.38ZM757.857 41.38H826.747V61.3H787.737V78.564H820.605V96.492H787.737V115.748H826.581V136H757.857V41.38ZM894.197 115.25H866.641L861.661 136H831.117L861.661 41.38H900.671L929.887 136H899.177L894.197 115.25ZM880.253 61.798L870.459 96.824H890.213L880.917 61.798H880.253ZM965.366 66.944C965.366 69.268 966.528 71.094 968.852 72.422C971.286 73.75 975.049 75.1887 980.14 76.738C986.226 78.73 991.206 80.6667 995.08 82.548C999.064 84.4293 1002.49 87.362 1005.37 91.346C1008.36 95.33 1009.85 100.531 1009.85 106.95C1009.85 127.534 996.463 137.826 969.682 137.826C965.255 137.826 959.832 137.439 953.414 136.664C947.106 135.889 941.351 134.893 936.15 133.676C936.371 131.352 936.814 127.977 937.478 123.55C938.252 119.013 938.972 115.637 939.636 113.424C943.509 113.977 949.319 114.641 957.066 115.416C964.923 116.191 970.844 116.578 974.828 116.578C977.152 116.578 978.535 116.412 978.978 116.08C979.642 115.637 980.14 114.918 980.472 113.922C980.914 112.815 981.136 111.875 981.136 111.1C981.136 108.887 980.084 107.227 977.982 106.12C975.879 104.903 972.282 103.464 967.192 101.804C961.105 99.9227 956.07 97.986 952.086 95.994C948.102 94.002 944.616 90.9033 941.628 86.698C938.64 82.4927 937.146 76.9593 937.146 70.098C937.146 65.2287 938.252 60.47 940.466 55.822C942.679 51.0633 944.948 47.854 947.272 46.194C949.042 44.9767 952.694 43.8147 958.228 42.708C963.761 41.6013 968.962 41.048 973.832 41.048C986.226 41.048 996.352 42.21 1004.21 44.534C1004.1 46.7473 1003.71 49.7907 1003.05 53.664C1002.49 57.5373 1001.89 61.0787 1001.22 64.288L997.404 64.122C983.017 63.126 973.832 62.628 969.848 62.628C968.188 62.628 967.247 62.6833 967.026 62.794C966.583 63.0153 966.196 63.5133 965.864 64.288C965.532 65.0627 965.366 65.948 965.366 66.944ZM1022.74 41.38H1091.63V61.3H1052.62V78.564H1085.49V96.492H1052.62V115.748H1091.47V136H1022.74V41.38ZM1107.13 98.484C1106.9 89.4093 1106.13 71.0387 1104.8 43.372L1104.3 31.918L1131.2 30.424C1131.31 32.6373 1131.36 35.902 1131.36 40.218C1131.36 51.7273 1130.81 65.3393 1129.7 81.054C1129.26 88.1367 1128.98 92.674 1128.87 94.666C1123.56 97.654 1116.59 99.2033 1107.96 99.314L1107.13 98.484ZM1117.58 136.996C1113.93 136.996 1110.89 135.834 1108.45 133.51C1106.13 131.075 1104.97 127.811 1104.97 123.716C1104.97 120.175 1106.19 117.187 1108.62 114.752C1111.17 112.317 1114.26 111.1 1117.92 111.1C1121.46 111.1 1124.39 112.317 1126.71 114.752C1129.15 117.187 1130.37 120.175 1130.37 123.716C1130.37 127.811 1129.2 131.075 1126.88 133.51C1124.56 135.834 1121.46 136.996 1117.58 136.996Z" fill="black"/>
<g clip-path="url(#clip0_171_371)">
<path d="M515.024 79.0345C503.451 81.2075 494.092 85.5329 486.535 91.1193C476.166 98.7841 469.271 108.763 464.686 118.626C460.524 127.578 458.247 136.474 457.002 143.542C455.76 136.474 453.486 127.578 449.326 118.626C444.743 108.763 437.848 98.7841 427.478 91.1193C419.919 85.5324 410.557 81.2068 398.979 79.034C410.551 76.8429 419.91 72.505 427.466 66.9105C437.834 59.2344 444.729 49.2524 449.314 39.3896C453.479 30.4311 455.756 21.5328 457 14.466C458.244 21.5328 460.521 30.4311 464.686 39.3896C469.271 49.2524 476.166 59.2344 486.534 66.9105C494.091 72.5054 503.451 76.8435 515.024 79.0345Z" fill="#02FF02" stroke="black" stroke-width="3"/>
</g>
<defs>
<clipPath id="clip0_171_371">
<rect width="144" height="158" fill="white" transform="translate(385)"/>
</clipPath>
</defs>
</svg>
