<svg width="409" height="410" viewBox="0 0 409 410" fill="none" xmlns="http://www.w3.org/2000/svg">
<g clip-path="url(#clip0_137_45)">
<path d="M302.54 201.895C284.388 201.781 266.178 201.781 248.026 201.781C267.719 199.152 287.413 196.523 307.05 193.723L358.082 186.352C375.036 183.666 392.046 181.208 409.057 178.408C391.932 179.951 374.864 181.837 357.739 183.609L306.536 189.38C274.512 193.038 242.603 197.152 210.579 201.038C221.882 184.923 233.355 168.865 244.487 152.579C256.817 134.521 269.089 116.463 280.849 97.9475C267.149 115.034 254.02 132.52 240.948 150.007C229.588 165.208 218.514 180.637 207.326 195.952C206.983 166.122 206.755 136.292 206.127 106.462C205.442 73.7749 204.7 41.0305 203.33 8.34326C202.359 41.0877 202.017 73.7749 201.731 106.519C201.56 124.749 201.617 142.978 201.617 161.208C198.991 141.492 196.366 121.72 193.569 102.005C188.717 67.9461 183.807 33.8873 178.27 -0.0571289C181.467 34.2302 185.292 68.4032 189.23 102.576C192.884 134.635 196.994 166.579 200.875 198.638C184.778 187.323 168.737 175.837 152.469 164.693C134.431 152.35 116.392 140.064 97.8974 128.292C114.965 142.007 132.433 155.15 149.9 168.236C165.084 179.608 180.497 190.695 195.795 201.895C165.997 202.238 136.2 202.467 106.403 203.095C73.7513 203.781 41.0427 204.524 8.39121 205.895C41.0998 206.867 73.7513 207.21 106.46 207.495C124.669 207.667 142.879 207.61 161.088 207.61C141.395 210.238 121.644 212.867 101.95 215.667C67.9288 220.467 33.9073 225.439 0 230.982C34.2498 227.782 68.3855 223.953 102.521 220.01C134.545 216.353 166.454 212.238 198.478 208.353C187.175 224.468 175.702 240.526 164.57 256.755L146.133 283.899C140.139 293.042 134.031 302.128 128.209 311.386C135.116 302.871 141.68 294.128 148.416 285.556L168.11 259.326C179.469 244.126 190.543 228.696 201.731 213.381C202.074 243.211 202.302 273.041 202.873 302.871L203.958 351.959C204.529 368.303 204.928 384.647 205.67 400.99C206.241 384.647 206.412 368.246 206.755 351.902L207.269 302.814C207.383 284.642 207.383 266.412 207.383 248.24C210.009 267.955 212.634 287.671 215.431 307.329L222.795 358.417C225.478 375.389 227.933 392.418 230.73 409.448C229.188 392.304 227.305 375.218 225.535 358.074L219.77 306.814C216.116 274.756 212.006 242.811 208.125 210.753C224.222 222.068 240.263 233.554 256.474 244.697L283.589 263.155C292.722 269.155 301.798 275.27 311.046 281.099C302.54 274.184 293.806 267.613 285.244 260.869L259.1 241.154C243.916 229.782 228.503 218.696 213.205 207.495C243.003 207.153 272.8 206.924 302.597 206.353L351.632 205.267C367.957 204.695 384.283 204.295 400.609 203.552C384.283 202.981 367.9 202.809 351.574 202.467L302.54 201.952V201.895Z" fill="black"/>
</g>
<defs>
<clipPath id="clip0_137_45">
<rect width="409" height="409.448" fill="white"/>
</clipPath>
</defs>
</svg>
