<svg width="137" height="137" viewBox="0 0 137 137" fill="none" xmlns="http://www.w3.org/2000/svg">
<g clip-path="url(#clip0_17_107)">
<path d="M137 68.5001C125.587 65.2474 114.173 63.6114 102.76 62.4038C97.501 61.8779 92.2422 61.4884 87.003 61.2157C90.353 46.725 100.617 36.4022 100.715 36.3049C100.617 36.4022 90.2946 46.6665 75.8038 50.0165C75.5311 44.7578 75.1416 39.4991 74.6157 34.2598C73.3887 22.8464 71.7721 11.433 68.5195 0.0195312C65.2668 11.433 63.6308 22.8464 62.4232 34.2598C61.8779 39.7133 61.4883 45.1668 61.1962 50.6203C54.1261 49.4907 46.6275 46.1407 39.1874 39.1874C46.1406 46.6276 49.5101 54.0872 50.6397 61.1573C45.1862 61.43 39.7327 61.839 34.2792 62.3843C22.8658 63.5919 11.4524 65.228 0.0389404 68.5195C11.4524 71.7916 22.8658 73.4277 34.2792 74.6547C39.5379 75.1806 44.7967 75.5701 50.036 75.8428C46.6859 90.3141 36.4217 100.637 36.3243 100.734C36.4217 100.637 46.7444 90.3725 61.2157 87.0225C61.4883 92.2813 61.8779 97.54 62.4037 102.779C63.6113 114.193 65.2474 125.606 68.5389 137.02C71.811 125.606 73.4471 114.193 74.6741 102.779C75.2195 97.3258 75.609 91.8723 75.9012 86.4187C82.9713 87.5484 90.4309 90.9179 97.871 97.8711C90.9178 90.431 87.5678 82.9324 86.4381 75.8623C91.8917 75.5896 97.3452 75.1806 102.799 74.6353C114.212 73.4082 125.626 71.7916 137.039 68.539L137 68.5001Z" fill="black"/>
</g>
<defs>
<clipPath id="clip0_17_107">
<rect width="137" height="137" fill="white"/>
</clipPath>
</defs>
</svg>
