<svg width="1668" height="480" viewBox="0 0 1668 480" fill="none" xmlns="http://www.w3.org/2000/svg">
<rect x="1.5" y="1.5" width="1665" height="477" fill="#02FF02" stroke="black" stroke-width="3"/>
<mask id="mask0_143_320" style="mask-type:alpha" maskUnits="userSpaceOnUse" x="0" y="0" width="1668" height="480">
<rect x="1.5" y="1.5" width="1665" height="477" fill="#02FF02" stroke="black" stroke-width="3"/>
</mask>
<g mask="url(#mask0_143_320)">
<circle cx="107.5" cy="313.5" r="208" stroke="black" stroke-width="3"/>
<circle cx="1589" cy="465" r="154.5" stroke="black" stroke-width="3"/>
<g clip-path="url(#clip0_143_320)">
<path d="M800.143 252.571C794.216 250.882 788.289 250.032 782.362 249.405C779.631 249.132 776.9 248.93 774.18 248.788C775.919 241.263 781.249 235.903 781.3 235.852C781.249 235.903 775.889 241.233 768.364 242.973C768.222 240.242 768.02 237.511 767.747 234.79C767.11 228.864 766.27 222.937 764.581 217.01C762.892 222.937 762.043 228.864 761.416 234.79C761.132 237.622 760.93 240.454 760.778 243.286C757.107 242.7 753.213 240.96 749.349 237.349C752.96 241.213 754.71 245.087 755.297 248.758C752.465 248.9 749.633 249.112 746.801 249.395C740.874 250.022 734.947 250.872 729.02 252.581C734.947 254.28 740.874 255.13 746.801 255.767C749.531 256.04 752.262 256.243 754.983 256.384C753.243 263.899 747.913 269.259 747.863 269.31C747.913 269.259 753.274 263.929 760.789 262.19C760.93 264.92 761.132 267.651 761.405 270.372C762.033 276.299 762.882 282.226 764.591 288.153C766.291 282.226 767.14 276.299 767.777 270.372C768.061 267.54 768.263 264.708 768.415 261.876C772.086 262.463 775.96 264.212 779.823 267.823C776.213 263.96 774.473 260.066 773.886 256.394C776.718 256.253 779.55 256.04 782.382 255.757C788.309 255.12 794.236 254.28 800.163 252.591L800.143 252.571Z" fill="black"/>
</g>
<g clip-path="url(#clip1_143_320)">
<path d="M868.714 252.571C862.787 250.882 856.86 250.032 850.933 249.405C848.203 249.132 845.472 248.93 842.751 248.788C844.491 241.263 849.821 235.903 849.871 235.852C849.821 235.903 844.46 241.233 836.935 242.973C836.794 240.242 836.592 237.511 836.318 234.79C835.681 228.864 834.842 222.937 833.153 217.01C831.464 222.937 830.614 228.864 829.987 234.79C829.704 237.622 829.502 240.454 829.35 243.286C825.678 242.7 821.784 240.96 817.921 237.349C821.532 241.213 823.281 245.087 823.868 248.758C821.036 248.9 818.204 249.112 815.372 249.395C809.445 250.022 803.518 250.872 797.591 252.581C803.518 254.28 809.445 255.13 815.372 255.767C818.103 256.04 820.834 256.243 823.554 256.384C821.815 263.899 816.485 269.259 816.434 269.31C816.485 269.259 821.845 263.929 829.36 262.19C829.502 264.92 829.704 267.651 829.977 270.372C830.604 276.299 831.454 282.226 833.163 288.153C834.862 282.226 835.712 276.299 836.349 270.372C836.632 267.54 836.834 264.708 836.986 261.876C840.657 262.463 844.531 264.212 848.395 267.823C844.784 263.96 843.044 260.066 842.458 256.394C845.29 256.253 848.122 256.04 850.954 255.757C856.881 255.12 862.807 254.28 868.734 252.591L868.714 252.571Z" fill="black"/>
</g>
<g clip-path="url(#clip2_143_320)">
<path d="M939 252.571C933.144 250.882 927.289 250.032 921.433 249.405C918.735 249.132 916.037 248.93 913.35 248.788C915.068 241.263 920.334 235.903 920.384 235.852C920.334 235.903 915.038 241.233 907.604 242.973C907.464 240.242 907.264 237.511 906.994 234.79C906.365 228.864 905.536 222.937 903.867 217.01C902.198 222.937 901.359 228.864 900.739 234.79C900.46 237.622 900.26 240.454 900.11 243.286C896.483 242.7 892.636 240.96 888.818 237.349C892.386 241.213 894.114 245.087 894.694 248.758C891.896 248.9 889.098 249.112 886.3 249.395C880.445 250.022 874.589 250.872 868.734 252.581C874.589 254.28 880.445 255.13 886.3 255.767C888.998 256.04 891.696 256.243 894.384 256.384C892.666 263.899 887.4 269.259 887.35 269.31C887.4 269.259 892.696 263.929 900.12 262.19C900.26 264.92 900.46 267.651 900.729 270.372C901.349 276.299 902.188 282.226 903.877 288.153C905.556 282.226 906.395 276.299 907.024 270.372C907.304 267.54 907.504 264.708 907.654 261.876C911.281 262.463 915.108 264.212 918.925 267.823C915.358 263.96 913.639 260.066 913.06 256.394C915.858 256.253 918.655 256.04 921.453 255.757C927.309 255.12 933.164 254.28 939.02 252.591L939 252.571Z" fill="black"/>
</g>
<path d="M594.312 161.094C594.312 157.547 594.836 154.391 595.883 151.625C596.945 148.844 598.602 146.648 600.852 145.039C603.102 143.43 605.945 142.625 609.383 142.625C611.727 142.625 614.203 142.93 616.812 143.539C617.656 144.039 618.391 144.562 619.016 145.109C619.656 145.641 620.266 146.289 620.844 147.055C620.844 148.164 620.695 149.641 620.398 151.484C620.102 153.312 619.727 155.023 619.273 156.617C618.836 158.195 618.414 159.219 618.008 159.688C617.602 159.891 617.258 160.031 616.977 160.109C616.695 160.172 616.258 160.203 615.664 160.203C614.93 160.203 614.242 160.148 613.602 160.039C612.961 159.93 612.477 159.781 612.148 159.594L611.328 151.695C610.219 151.383 608.68 151.227 606.711 151.227C606.18 151.227 605.789 151.234 605.539 151.25C604.867 153.406 604.492 156.305 604.414 159.945C604.398 160.383 604.391 161.047 604.391 161.938C604.391 164.031 604.5 165.727 604.719 167.023C604.922 168.242 605.141 169.156 605.375 169.766C605.609 170.375 606.016 170.844 606.594 171.172C607.188 171.5 608.07 171.664 609.242 171.664C610.82 171.664 612.273 171.438 613.602 170.984C614.945 170.516 616.406 169.836 617.984 168.945C618.578 169.586 619.031 170.109 619.344 170.516C619.672 170.922 619.969 171.422 620.234 172.016C620.516 172.609 620.703 173.289 620.797 174.055C620.547 174.57 619.883 175.258 618.805 176.117C617.727 176.977 616.312 177.75 614.562 178.438C612.812 179.125 610.852 179.469 608.68 179.469C603.602 179.469 599.938 177.883 597.688 174.711C595.438 171.539 594.312 167 594.312 161.094ZM624.852 164.445C624.852 162.18 624.898 159.82 624.992 157.367C625.07 154.789 625.195 152.516 625.367 150.547H625.32L622.672 150.055C622.5 149.289 622.375 148.641 622.297 148.109C622.234 147.562 622.203 147 622.203 146.422C622.203 146.016 622.211 145.703 622.227 145.484C622.555 145.062 623.055 144.641 623.727 144.219C624.414 143.781 625.211 143.414 626.117 143.117C627.023 142.82 627.961 142.672 628.93 142.672C630.914 142.672 632.391 143.18 633.359 144.195C634.328 145.211 634.766 146.727 634.672 148.742L634.602 150.781C634.539 154.203 634.398 156.984 634.18 159.125H642.148C642.195 156.016 642.336 153.148 642.57 150.523H642.523L639.172 150.031C639 149.266 638.875 148.617 638.797 148.086C638.734 147.539 638.703 146.977 638.703 146.398C638.703 145.992 638.711 145.68 638.727 145.461C639.055 145.055 639.617 144.633 640.414 144.195C641.211 143.758 642.125 143.391 643.156 143.094C644.203 142.797 645.234 142.648 646.25 142.648C648.234 142.648 649.75 143.164 650.797 144.195C651.859 145.211 652.391 146.719 652.391 148.719C652.391 154.312 651.523 162.148 649.789 172.227L653.258 170.727C654.445 171.758 655.125 173.148 655.297 174.898C655.297 175.008 654.93 175.461 654.195 176.258C653.477 177.039 652.531 177.773 651.359 178.461C650.203 179.133 648.883 179.469 647.398 179.469C645.82 179.469 644.516 179.047 643.484 178.203C642.469 177.359 641.969 175.883 641.984 173.773V172.25C641.984 169.656 642.039 167.5 642.148 165.781C641.789 165.812 641.242 165.828 640.508 165.828C639.43 165.828 637.844 165.734 635.75 165.547C634.75 165.453 634.039 165.391 633.617 165.359C633.664 166.938 633.781 168.508 633.969 170.07C634.156 171.617 634.398 173.367 634.695 175.32C634.883 176.555 635.016 177.484 635.094 178.109C634.453 178.5 633.438 178.82 632.047 179.07C630.656 179.32 629.477 179.445 628.508 179.445C628.023 179.445 627.562 179.406 627.125 179.328C626.703 179.25 626.234 179.133 625.719 178.977C625.141 175.367 624.852 170.523 624.852 164.445ZM657.102 161.281C657.102 148.875 661.977 142.672 671.727 142.672C675.586 142.672 678.594 143.477 680.75 145.086C682.922 146.68 684.414 148.836 685.227 151.555C686.055 154.258 686.469 157.5 686.469 161.281C686.469 166.844 685.328 171.266 683.047 174.547C680.766 177.828 676.992 179.469 671.727 179.469C666.43 179.469 662.664 177.844 660.43 174.594C658.211 171.344 657.102 166.906 657.102 161.281ZM672.898 171.992C674.18 171.992 674.914 171.922 675.102 171.781C675.492 171.094 675.789 169.898 675.992 168.195C676.195 166.477 676.297 164.555 676.297 162.43C676.297 160.195 676.188 158.125 675.969 156.219C675.766 154.297 675.477 152.953 675.102 152.188C674.711 151.875 674.133 151.641 673.367 151.484C672.602 151.328 671.758 151.242 670.836 151.227C670.305 151.227 669.82 151.258 669.383 151.32C668.961 151.367 668.656 151.445 668.469 151.555C668.016 152.336 667.68 153.469 667.461 154.953C667.258 156.422 667.156 158.102 667.156 159.992C667.156 162.133 667.273 164.266 667.508 166.391C667.742 168.516 668.031 170.141 668.375 171.266C668.594 171.5 669.148 171.68 670.039 171.805C670.93 171.93 671.883 171.992 672.898 171.992ZM689.633 161.281C689.633 148.875 694.508 142.672 704.258 142.672C708.117 142.672 711.125 143.477 713.281 145.086C715.453 146.68 716.945 148.836 717.758 151.555C718.586 154.258 719 157.5 719 161.281C719 166.844 717.859 171.266 715.578 174.547C713.297 177.828 709.523 179.469 704.258 179.469C698.961 179.469 695.195 177.844 692.961 174.594C690.742 171.344 689.633 166.906 689.633 161.281ZM705.43 171.992C706.711 171.992 707.445 171.922 707.633 171.781C708.023 171.094 708.32 169.898 708.523 168.195C708.727 166.477 708.828 164.555 708.828 162.43C708.828 160.195 708.719 158.125 708.5 156.219C708.297 154.297 708.008 152.953 707.633 152.188C707.242 151.875 706.664 151.641 705.898 151.484C705.133 151.328 704.289 151.242 703.367 151.227C702.836 151.227 702.352 151.258 701.914 151.32C701.492 151.367 701.188 151.445 701 151.555C700.547 152.336 700.211 153.469 699.992 154.953C699.789 156.422 699.688 158.102 699.688 159.992C699.688 162.133 699.805 164.266 700.039 166.391C700.273 168.516 700.562 170.141 700.906 171.266C701.125 171.5 701.68 171.68 702.57 171.805C703.461 171.93 704.414 171.992 705.43 171.992ZM721.906 173.867C721.906 173.07 722.055 172.266 722.352 171.453C722.648 170.641 723.109 169.875 723.734 169.156C726.016 170.156 728 170.922 729.688 171.453C731.391 171.984 733.141 172.25 734.938 172.25C735.266 172.25 735.602 172.219 735.945 172.156C736.305 172.094 736.586 172.008 736.789 171.898C736.867 171.727 736.93 171.508 736.977 171.242C737.023 170.961 737.047 170.734 737.047 170.562C737.047 169.797 736.68 169.141 735.945 168.594C735.211 168.047 734.242 167.5 733.039 166.953L732.219 166.555C729.875 165.352 727.992 164.273 726.57 163.32C725.164 162.352 723.969 161.086 722.984 159.523C722.016 157.945 721.531 156.016 721.531 153.734C721.531 150.391 722.461 147.711 724.32 145.695C726.195 143.68 729.172 142.672 733.25 142.672C736.734 142.672 739.492 142.883 741.523 143.305C742.367 143.805 743.102 144.328 743.727 144.875C744.367 145.406 744.977 146.055 745.555 146.82C745.555 147.914 745.445 149.102 745.227 150.383C745.023 151.648 744.734 152.812 744.359 153.875C744 154.938 743.609 155.703 743.188 156.172C742.828 156.344 742.43 156.477 741.992 156.57C741.555 156.648 741.016 156.688 740.375 156.688C739.703 156.688 739.156 156.641 738.734 156.547C738.312 156.453 737.922 156.297 737.562 156.078L736.836 151.203C735.93 150.953 734.969 150.773 733.953 150.664C732.938 150.539 732.25 150.484 731.891 150.5C731.312 150.766 730.914 151.141 730.695 151.625C730.492 152.094 730.391 152.656 730.391 153.312C730.391 154.016 730.578 154.625 730.953 155.141C731.344 155.641 731.812 156.055 732.359 156.383C732.906 156.711 733.609 157.078 734.469 157.484L735.5 158C737.734 159.172 739.492 160.195 740.773 161.07C742.055 161.945 743.125 163.055 743.984 164.398C744.859 165.727 745.297 167.336 745.297 169.227C745.297 171.43 744.719 173.328 743.562 174.922C742.406 176.5 740.922 177.641 739.109 178.344C738.125 178.734 737.039 179.016 735.852 179.188C734.664 179.359 733.289 179.445 731.727 179.445C730.664 179.445 729.523 179.312 728.305 179.047C727.086 178.781 725.898 178.312 724.742 177.641C723.602 176.969 722.688 176.07 722 174.945C721.938 174.648 721.906 174.289 721.906 173.867ZM747.312 173.258C747.312 171.867 747.602 170.516 748.18 169.203C748.445 169.203 748.859 169.258 749.422 169.367C750 169.461 750.602 169.586 751.227 169.742C751.133 165.523 751.086 162.062 751.086 159.359C751.086 156 751.148 153.133 751.273 150.758L747.664 150.266C747.461 149.688 747.305 149.055 747.195 148.367C747.086 147.664 747.031 146.984 747.031 146.328C747.031 145.828 747.07 145.281 747.148 144.688C749.008 143.984 751.453 143.477 754.484 143.164C757.531 142.836 760.602 142.672 763.695 142.672C766.617 142.672 768.734 142.805 770.047 143.07C770.891 143.586 771.625 144.109 772.25 144.641C772.891 145.156 773.5 145.797 774.078 146.562C774.078 147.656 773.969 148.844 773.75 150.125C773.547 151.391 773.258 152.555 772.883 153.617C772.523 154.68 772.133 155.445 771.711 155.914C771.352 156.086 770.953 156.219 770.516 156.312C770.078 156.391 769.539 156.43 768.898 156.43C768.336 156.43 767.852 156.383 767.445 156.289C767.055 156.18 766.68 156.023 766.32 155.82L765.523 150.711C764.539 150.555 763.367 150.477 762.008 150.477C761.633 150.477 761.258 150.5 760.883 150.547C760.82 152.812 760.5 155.898 759.922 159.805C763.391 159.227 766.352 158.805 768.805 158.539C769.43 159.492 769.742 160.656 769.742 162.031C769.742 162.938 769.617 163.812 769.367 164.656C769.117 165.5 768.844 166.086 768.547 166.414C767.891 166.523 767.109 166.578 766.203 166.578C765.031 166.578 763.812 166.477 762.547 166.273C761.297 166.07 760.125 165.773 759.031 165.383L758.727 167.375C758.539 168.484 758.375 169.578 758.234 170.656L773.07 169.789C773.305 170.008 773.5 170.445 773.656 171.102C773.828 171.758 773.914 172.477 773.914 173.258C773.914 174.508 773.664 175.602 773.164 176.539C772.664 177.477 772 178.203 771.172 178.719C770.359 179.219 769.484 179.469 768.547 179.469C767.609 179.469 766.328 179.266 764.703 178.859C763.094 178.438 761.523 177.914 759.992 177.289C758.477 176.664 757.359 176.062 756.641 175.484C755.922 176.734 755.133 177.688 754.273 178.344C753.43 179 752.336 179.375 750.992 179.469C750.32 179.359 749.703 179.016 749.141 178.438C748.578 177.859 748.133 177.117 747.805 176.211C747.477 175.305 747.312 174.32 747.312 173.258ZM794.891 167.938C794.125 166.75 793.203 165.156 792.125 163.156C791.062 161.156 790.016 159.023 788.984 156.758C787.969 154.492 787.172 152.422 786.594 150.547L783.031 150.055C782.797 149.102 782.641 148.312 782.562 147.688C782.484 147.047 782.453 146.312 782.469 145.484C782.781 145.094 783.344 144.68 784.156 144.242C784.953 143.789 785.875 143.414 786.922 143.117C787.969 142.82 789 142.672 790.016 142.672C792.922 142.672 794.742 143.766 795.477 145.953C795.773 146.641 796.227 147.898 796.836 149.727C797.461 151.539 798.094 153.586 798.734 155.867C799.375 158.148 799.875 160.297 800.234 162.312C801.188 160.406 802.133 158.297 803.07 155.984C804.008 153.672 804.633 151.844 804.945 150.5H804.898L802.039 150.008C801.805 149.055 801.648 148.266 801.57 147.641C801.492 147 801.461 146.266 801.477 145.438C801.789 145.047 802.344 144.633 803.141 144.195C803.953 143.742 804.883 143.367 805.93 143.07C806.977 142.773 808.008 142.625 809.023 142.625C812.023 142.625 813.859 143.781 814.531 146.094C814.703 146.672 814.789 147.242 814.789 147.805C814.789 149.477 814.094 151.594 812.703 154.156C811.312 156.719 809.711 159.211 807.898 161.633C806.086 164.055 804.531 165.969 803.234 167.375C802.906 169.391 802.609 170.969 802.344 172.109L802.391 172.156L805.859 170.703C807.078 171.75 807.789 173.141 807.992 174.875C807.992 174.969 807.617 175.414 806.867 176.211C806.133 177.008 805.172 177.75 803.984 178.438C802.797 179.109 801.461 179.445 799.977 179.445C798.445 179.445 797.203 179.016 796.25 178.156C795.297 177.297 794.828 175.828 794.844 173.75L794.891 167.938ZM815.961 161.281C815.961 148.875 820.836 142.672 830.586 142.672C834.445 142.672 837.453 143.477 839.609 145.086C841.781 146.68 843.273 148.836 844.086 151.555C844.914 154.258 845.328 157.5 845.328 161.281C845.328 166.844 844.188 171.266 841.906 174.547C839.625 177.828 835.852 179.469 830.586 179.469C825.289 179.469 821.523 177.844 819.289 174.594C817.07 171.344 815.961 166.906 815.961 161.281ZM831.758 171.992C833.039 171.992 833.773 171.922 833.961 171.781C834.352 171.094 834.648 169.898 834.852 168.195C835.055 166.477 835.156 164.555 835.156 162.43C835.156 160.195 835.047 158.125 834.828 156.219C834.625 154.297 834.336 152.953 833.961 152.188C833.57 151.875 832.992 151.641 832.227 151.484C831.461 151.328 830.617 151.242 829.695 151.227C829.164 151.227 828.68 151.258 828.242 151.32C827.82 151.367 827.516 151.445 827.328 151.555C826.875 152.336 826.539 153.469 826.32 154.953C826.117 156.422 826.016 158.102 826.016 159.992C826.016 162.133 826.133 164.266 826.367 166.391C826.602 168.516 826.891 170.141 827.234 171.266C827.453 171.5 828.008 171.68 828.898 171.805C829.789 171.93 830.742 171.992 831.758 171.992ZM848.234 149.844C847.953 148.953 847.758 148.32 847.648 147.945C847.555 147.555 847.484 147.141 847.438 146.703C847.406 146.25 847.391 145.594 847.391 144.734C848.703 144 849.93 143.477 851.07 143.164C852.227 142.836 853.531 142.672 854.984 142.672C859.312 142.672 861.477 144.836 861.477 149.164C861.477 150.523 861.336 152.539 861.055 155.211C860.789 157.883 860.438 161.117 860 164.914C859.734 167.117 859.539 168.828 859.414 170.047C859.711 170.375 860.062 170.586 860.469 170.68C860.688 170.773 861.336 170.414 862.414 169.602C863.508 168.773 864.617 167.789 865.742 166.648C866.883 165.492 867.695 164.453 868.18 163.531C867.742 155.094 867.062 148.859 866.141 144.828C866.844 144.125 867.758 143.594 868.883 143.234C870.008 142.859 871.102 142.672 872.164 142.672C873.07 142.672 873.938 142.773 874.766 142.977C875.609 143.164 876.336 143.484 876.945 143.938C877.43 145 877.672 146.742 877.672 149.164C877.672 150.508 877.539 152.711 877.273 155.773C877.023 158.82 876.703 161.844 876.312 164.844C875.938 167.828 875.57 170 875.211 171.359L878.094 170.094C878.578 170.594 879.008 171.227 879.383 171.992C879.758 172.742 880 173.602 880.109 174.57C879.859 175.07 879.344 175.711 878.562 176.492C877.781 177.273 876.82 177.969 875.68 178.578C874.555 179.172 873.367 179.469 872.117 179.469C870.727 179.469 869.656 179.055 868.906 178.227C868.172 177.398 867.805 176.336 867.805 175.039C867.805 174.727 867.867 174.047 867.992 173C868.133 171.953 868.258 171.305 868.367 171.055L867.664 170.82C866.82 172.492 865.938 173.953 865.016 175.203C864.109 176.453 863.031 177.477 861.781 178.273C860.531 179.07 859.109 179.469 857.516 179.469C855.031 179.469 853.289 178.586 852.289 176.82C851.289 175.039 850.789 172.812 850.789 170.141C850.789 166.906 850.828 163.211 850.906 159.055C850.984 154.898 851.109 151.953 851.281 150.219L848.234 149.844ZM884.609 160.391C884.609 156.781 884.672 153.578 884.797 150.781L881.633 150.289C881.43 149.711 881.273 149.07 881.164 148.367C881.055 147.664 881 146.984 881 146.328C881 145.828 881.039 145.281 881.117 144.688C883.164 143.969 885.867 143.453 889.227 143.141C892.586 142.828 895.867 142.672 899.07 142.672C901.461 142.672 903.516 142.859 905.234 143.234C906.953 143.609 908.391 144.461 909.547 145.789C910.719 147.102 911.305 149.07 911.305 151.695C911.305 152.773 911.133 153.969 910.789 155.281C910.445 156.578 909.969 157.875 909.359 159.172C908.797 160.359 908.156 161.492 907.438 162.57C906.734 163.633 906 164.547 905.234 165.312C905.688 166.5 906.156 167.586 906.641 168.57C907.125 169.539 907.867 170.719 908.867 172.109L912.148 170.727C913.367 171.773 914.078 173.164 914.281 174.898C914.281 174.992 913.906 175.438 913.156 176.234C912.422 177.031 911.461 177.773 910.273 178.461C909.086 179.133 907.75 179.469 906.266 179.469C905.109 179.469 904.07 179.266 903.148 178.859C902.242 178.453 901.492 177.742 900.898 176.727C900.32 175.727 899.859 174.539 899.516 173.164C899.172 171.789 898.93 170.43 898.789 169.086L893.445 168.852C893.586 170.07 893.766 171.328 893.984 172.625C894.203 173.906 894.336 174.68 894.383 174.945C894.648 176.492 894.82 177.547 894.898 178.109C894.18 178.547 893.305 178.883 892.273 179.117C891.258 179.352 890.219 179.469 889.156 179.469C887.938 179.469 886.758 179.305 885.617 178.977C885.273 177.602 885.016 175.195 884.844 171.758C884.688 168.305 884.609 164.516 884.609 160.391ZM899.188 163.203C899.734 161.641 900.164 159.945 900.477 158.117C900.805 156.273 901.102 154.078 901.367 151.531C900.914 151.359 900.32 151.227 899.586 151.133C898.852 151.039 898.141 150.992 897.453 150.992C895.891 150.992 894.719 151.031 893.938 151.109C893.766 156.984 893.578 161.148 893.375 163.602L899.188 163.203ZM924.805 175.039C924.805 174.32 924.906 173.586 925.109 172.836C925.312 172.07 925.586 171.438 925.93 170.938L928.18 171.359L930.711 149.422L927.102 148.906C926.805 148.125 926.656 147.328 926.656 146.516C926.656 145.688 926.82 144.844 927.148 143.984C927.977 143.594 929.391 143.281 931.391 143.047C933.406 142.797 935.195 142.672 936.758 142.672C938.211 142.672 940 142.703 942.125 142.766L942.945 143.141C943.289 144.109 943.758 145.773 944.352 148.133C944.961 150.477 945.992 154.617 947.445 160.555C947.68 161.477 947.938 162.523 948.219 163.695C948.969 160.977 949.891 157.133 950.984 152.164L951.57 149.609H951.688L947.797 148.953C947.422 148.078 947.234 147.141 947.234 146.141C947.234 145.484 947.32 144.773 947.492 144.008C949.008 143.523 950.586 143.18 952.227 142.977C953.883 142.773 955.688 142.672 957.641 142.672H958.414C959.242 142.672 960.422 142.703 961.953 142.766L962.773 143.141C963.773 146.766 964.727 151.164 965.633 156.336C966.555 161.492 967.25 166.227 967.719 170.539L967.789 171.125C967.805 171.234 967.844 171.609 967.906 172.25C967.969 172.875 968 173.477 968 174.055C968 174.758 967.93 175.453 967.789 176.141C967.555 177.172 967.133 178.023 966.523 178.695C965.914 178.945 965.273 179.133 964.602 179.258C963.945 179.398 963.18 179.469 962.305 179.469C961.445 179.469 960.586 179.367 959.727 179.164C958.883 178.977 958.32 178.695 958.039 178.32L958.883 172.953L957.477 158.211L957.594 150.359H956.867L955.719 158.398C954.188 164.07 952.789 168.461 951.523 171.57C951.961 172.43 952.336 173.383 952.648 174.43C952.977 175.477 953.18 176.5 953.258 177.5C952.602 178.125 951.703 178.609 950.562 178.953C949.438 179.297 948.242 179.469 946.977 179.469C945.68 179.469 944.492 179.289 943.414 178.93C942.352 178.57 941.578 178.07 941.094 177.43C941.172 175.852 941.562 174.328 942.266 172.859L938.094 157.789L936.359 150.688L935.562 150.805L936.711 158.75C936.648 161.516 936.547 164.328 936.406 167.188C936.266 170.047 936.109 172.312 935.938 173.984H935.961C935.836 174.969 935.5 175.844 934.953 176.609C934.422 177.359 933.742 177.945 932.914 178.367C932.102 178.789 931.219 179 930.266 179C927.766 179 925.961 177.922 924.852 175.766C924.82 175.453 924.805 175.211 924.805 175.039ZM970.812 149.844C970.531 148.953 970.336 148.32 970.227 147.945C970.133 147.555 970.062 147.141 970.016 146.703C969.984 146.25 969.969 145.594 969.969 144.734C971.281 144 972.508 143.477 973.648 143.164C974.805 142.836 976.109 142.672 977.562 142.672C981.891 142.672 984.055 144.836 984.055 149.164C984.055 150.523 983.914 152.539 983.633 155.211C983.367 157.883 983.016 161.117 982.578 164.914C982.312 167.117 982.117 168.828 981.992 170.047C982.289 170.375 982.641 170.586 983.047 170.68C983.266 170.773 983.914 170.414 984.992 169.602C986.086 168.773 987.195 167.789 988.32 166.648C989.461 165.492 990.273 164.453 990.758 163.531C990.32 155.094 989.641 148.859 988.719 144.828C989.422 144.125 990.336 143.594 991.461 143.234C992.586 142.859 993.68 142.672 994.742 142.672C995.648 142.672 996.516 142.773 997.344 142.977C998.188 143.164 998.914 143.484 999.523 143.938C1000.01 145 1000.25 146.742 1000.25 149.164C1000.25 150.508 1000.12 152.711 999.852 155.773C999.602 158.82 999.281 161.844 998.891 164.844C998.516 167.828 998.148 170 997.789 171.359L1000.67 170.094C1001.16 170.594 1001.59 171.227 1001.96 171.992C1002.34 172.742 1002.58 173.602 1002.69 174.57C1002.44 175.07 1001.92 175.711 1001.14 176.492C1000.36 177.273 999.398 177.969 998.258 178.578C997.133 179.172 995.945 179.469 994.695 179.469C993.305 179.469 992.234 179.055 991.484 178.227C990.75 177.398 990.383 176.336 990.383 175.039C990.383 174.727 990.445 174.047 990.57 173C990.711 171.953 990.836 171.305 990.945 171.055L990.242 170.82C989.398 172.492 988.516 173.953 987.594 175.203C986.688 176.453 985.609 177.477 984.359 178.273C983.109 179.07 981.688 179.469 980.094 179.469C977.609 179.469 975.867 178.586 974.867 176.82C973.867 175.039 973.367 172.812 973.367 170.141C973.367 166.906 973.406 163.211 973.484 159.055C973.562 154.898 973.688 151.953 973.859 150.219L970.812 149.844ZM1004.61 173.867C1004.61 173.07 1004.76 172.266 1005.05 171.453C1005.35 170.641 1005.81 169.875 1006.44 169.156C1008.72 170.156 1010.7 170.922 1012.39 171.453C1014.09 171.984 1015.84 172.25 1017.64 172.25C1017.97 172.25 1018.3 172.219 1018.65 172.156C1019.01 172.094 1019.29 172.008 1019.49 171.898C1019.57 171.727 1019.63 171.508 1019.68 171.242C1019.73 170.961 1019.75 170.734 1019.75 170.562C1019.75 169.797 1019.38 169.141 1018.65 168.594C1017.91 168.047 1016.95 167.5 1015.74 166.953L1014.92 166.555C1012.58 165.352 1010.7 164.273 1009.27 163.32C1007.87 162.352 1006.67 161.086 1005.69 159.523C1004.72 157.945 1004.23 156.016 1004.23 153.734C1004.23 150.391 1005.16 147.711 1007.02 145.695C1008.9 143.68 1011.88 142.672 1015.95 142.672C1019.44 142.672 1022.2 142.883 1024.23 143.305C1025.07 143.805 1025.8 144.328 1026.43 144.875C1027.07 145.406 1027.68 146.055 1028.26 146.82C1028.26 147.914 1028.15 149.102 1027.93 150.383C1027.73 151.648 1027.44 152.812 1027.06 153.875C1026.7 154.938 1026.31 155.703 1025.89 156.172C1025.53 156.344 1025.13 156.477 1024.7 156.57C1024.26 156.648 1023.72 156.688 1023.08 156.688C1022.41 156.688 1021.86 156.641 1021.44 156.547C1021.02 156.453 1020.62 156.297 1020.27 156.078L1019.54 151.203C1018.63 150.953 1017.67 150.773 1016.66 150.664C1015.64 150.539 1014.95 150.484 1014.59 150.5C1014.02 150.766 1013.62 151.141 1013.4 151.625C1013.2 152.094 1013.09 152.656 1013.09 153.312C1013.09 154.016 1013.28 154.625 1013.66 155.141C1014.05 155.641 1014.52 156.055 1015.06 156.383C1015.61 156.711 1016.31 157.078 1017.17 157.484L1018.2 158C1020.44 159.172 1022.2 160.195 1023.48 161.07C1024.76 161.945 1025.83 163.055 1026.69 164.398C1027.56 165.727 1028 167.336 1028 169.227C1028 171.43 1027.42 173.328 1026.27 174.922C1025.11 176.5 1023.62 177.641 1021.81 178.344C1020.83 178.734 1019.74 179.016 1018.55 179.188C1017.37 179.359 1015.99 179.445 1014.43 179.445C1013.37 179.445 1012.23 179.312 1011.01 179.047C1009.79 178.781 1008.6 178.312 1007.45 177.641C1006.3 176.969 1005.39 176.07 1004.7 174.945C1004.64 174.648 1004.61 174.289 1004.61 173.867ZM1033.91 177.852C1033.91 177.18 1033.88 175.188 1033.81 171.875C1033.69 167.031 1033.62 162.844 1033.62 159.312C1033.62 155.859 1033.69 152.938 1033.81 150.547L1029.99 150.055C1029.76 149.102 1029.6 148.312 1029.52 147.688C1029.45 147.047 1029.41 146.312 1029.43 145.484C1029.74 145.094 1030.32 144.68 1031.16 144.242C1032.02 143.789 1032.99 143.414 1034.07 143.117C1035.16 142.82 1036.22 142.672 1037.23 142.672C1039.05 142.672 1040.52 143.078 1041.66 143.891C1042.82 144.703 1043.43 145.875 1043.49 147.406C1043.52 148.312 1043.54 149.086 1043.54 149.727C1043.54 152.68 1043.41 156.242 1043.16 160.414C1042.91 164.57 1042.58 169.484 1042.16 175.156L1041.92 178.461C1040.69 179.148 1039.28 179.492 1037.7 179.492C1036.36 179.492 1035.09 179.25 1033.91 178.766V177.852ZM1047.55 161.094C1047.55 157.547 1048.07 154.391 1049.12 151.625C1050.18 148.844 1051.84 146.648 1054.09 145.039C1056.34 143.43 1059.18 142.625 1062.62 142.625C1064.96 142.625 1067.44 142.93 1070.05 143.539C1070.89 144.039 1071.62 144.562 1072.25 145.109C1072.89 145.641 1073.5 146.289 1074.08 147.055C1074.08 148.164 1073.93 149.641 1073.63 151.484C1073.34 153.312 1072.96 155.023 1072.51 156.617C1072.07 158.195 1071.65 159.219 1071.24 159.688C1070.84 159.891 1070.49 160.031 1070.21 160.109C1069.93 160.172 1069.49 160.203 1068.9 160.203C1068.16 160.203 1067.48 160.148 1066.84 160.039C1066.2 159.93 1065.71 159.781 1065.38 159.594L1064.56 151.695C1063.45 151.383 1061.91 151.227 1059.95 151.227C1059.41 151.227 1059.02 151.234 1058.77 151.25C1058.1 153.406 1057.73 156.305 1057.65 159.945C1057.63 160.383 1057.62 161.047 1057.62 161.938C1057.62 164.031 1057.73 165.727 1057.95 167.023C1058.16 168.242 1058.38 169.156 1058.61 169.766C1058.84 170.375 1059.25 170.844 1059.83 171.172C1060.42 171.5 1061.3 171.664 1062.48 171.664C1064.05 171.664 1065.51 171.438 1066.84 170.984C1068.18 170.516 1069.64 169.836 1071.22 168.945C1071.81 169.586 1072.27 170.109 1072.58 170.516C1072.91 170.922 1073.2 171.422 1073.47 172.016C1073.75 172.609 1073.94 173.289 1074.03 174.055C1073.78 174.57 1073.12 175.258 1072.04 176.117C1070.96 176.977 1069.55 177.75 1067.8 178.438C1066.05 179.125 1064.09 179.469 1061.91 179.469C1056.84 179.469 1053.17 177.883 1050.92 174.711C1048.67 171.539 1047.55 167 1047.55 161.094Z" fill="black"/>
</g>
<g clip-path="url(#clip3_143_320)">
<path d="M251 113C251 113.275 250.925 159.025 207 160.527C250.944 161.957 251 207.744 251 208.018C251 207.744 251.075 161.957 295 160.527C251.075 159.025 251 113.275 251 113Z" fill="black"/>
</g>
<g clip-path="url(#clip4_143_320)">
<path d="M1463 342C1463 342.22 1462.94 378.82 1428 380.022C1462.96 381.165 1463 417.795 1463 418.015C1463 417.795 1463.06 381.165 1498 380.022C1463.06 378.82 1463 342.22 1463 342Z" fill="black"/>
</g>
<path d="M342.989 432.543L386.895 330.757L453.091 419.674L342.989 432.543Z" stroke="black" stroke-width="3"/>
<path d="M1585.1 277.555L1566.23 218.67L1626.66 231.773L1585.1 277.555Z" stroke="black" stroke-width="3"/>
<defs>
<clipPath id="clip0_143_320">
<rect width="71.1429" height="71.1429" fill="white" transform="translate(729 217)"/>
</clipPath>
<clipPath id="clip1_143_320">
<rect width="71.1429" height="71.1429" fill="white" transform="translate(797.571 217)"/>
</clipPath>
<clipPath id="clip2_143_320">
<rect width="70.2857" height="71.1429" fill="white" transform="translate(868.714 217)"/>
</clipPath>
<clipPath id="clip3_143_320">
<rect width="88" height="95" fill="white" transform="translate(207 113)"/>
</clipPath>
<clipPath id="clip4_143_320">
<rect width="70" height="76" fill="white" transform="translate(1428 342)"/>
</clipPath>
</defs>
</svg>
