<svg width="1220" height="653" viewBox="0 0 1220 653" fill="none" xmlns="http://www.w3.org/2000/svg">
<path d="M450.073 241.472C455.875 242.155 460.014 244.117 462.489 247.36C464.963 250.517 466.201 254.357 466.201 258.88C466.201 261.696 465.774 264.384 464.921 266.944C464.067 269.419 463.043 271.552 461.849 273.344C460.654 275.051 459.63 276.16 458.777 276.672C455.363 278.891 444.953 280 427.545 280H402.713V207.04H432.793C439.619 207.04 445.123 207.424 449.305 208.192C453.571 208.875 457.027 210.496 459.673 213.056C462.318 215.531 463.641 219.328 463.641 224.448C463.641 228.885 462.531 232.469 460.312 235.2C458.179 237.931 454.766 239.808 450.073 240.832V241.472ZM439.833 222.528C438.979 221.675 437.955 221.163 436.761 220.992C435.651 220.736 433.859 220.608 431.385 220.608C428.91 220.608 427.033 220.651 425.753 220.736V236.352H427.033C427.459 236.352 429.251 236.352 432.409 236.352C435.566 236.352 437.657 236.139 438.681 235.712C439.449 235.371 440.131 234.475 440.729 233.024C441.411 231.573 441.753 229.995 441.753 228.288C441.753 225.728 441.113 223.808 439.833 222.528ZM442.009 265.28C442.606 264.768 443.075 263.829 443.417 262.464C443.843 261.013 444.057 259.563 444.057 258.112C444.057 256.32 443.801 254.656 443.289 253.12C442.862 251.499 442.265 250.347 441.497 249.664C440.729 248.896 439.619 248.384 438.169 248.128C436.803 247.872 434.457 247.744 431.129 247.744C428.995 247.744 427.203 247.787 425.753 247.872V266.432C429.763 266.517 433.347 266.475 436.505 266.304C439.662 266.048 441.497 265.707 442.009 265.28ZM475.198 207.04H528.318V222.4H498.238V235.712H523.582V249.536H498.238V264.384H528.19V280H475.198V207.04ZM559.08 226.752C559.08 228.544 559.976 229.952 561.768 230.976C563.645 232 566.546 233.109 570.472 234.304C575.165 235.84 579.005 237.333 581.992 238.784C585.064 240.235 587.709 242.496 589.928 245.568C592.232 248.64 593.384 252.651 593.384 257.6C593.384 273.472 583.058 281.408 562.408 281.408C558.994 281.408 554.813 281.109 549.864 280.512C545 279.915 540.562 279.147 536.552 278.208C536.722 276.416 537.064 273.813 537.576 270.4C538.173 266.901 538.728 264.299 539.24 262.592C542.226 263.019 546.706 263.531 552.68 264.128C558.738 264.725 563.304 265.024 566.376 265.024C568.168 265.024 569.234 264.896 569.576 264.64C570.088 264.299 570.472 263.744 570.728 262.976C571.069 262.123 571.24 261.397 571.24 260.8C571.24 259.093 570.429 257.813 568.808 256.96C567.186 256.021 564.413 254.912 560.488 253.632C555.794 252.181 551.912 250.688 548.84 249.152C545.768 247.616 543.08 245.227 540.776 241.984C538.472 238.741 537.32 234.475 537.32 229.184C537.32 225.429 538.173 221.76 539.88 218.176C541.586 214.507 543.336 212.032 545.128 210.752C546.493 209.813 549.309 208.917 553.576 208.064C557.842 207.211 561.853 206.784 565.608 206.784C575.165 206.784 582.973 207.68 589.032 209.472C588.946 211.179 588.648 213.525 588.136 216.512C587.709 219.499 587.24 222.229 586.728 224.704L583.784 224.576C572.69 223.808 565.608 223.424 562.536 223.424C561.256 223.424 560.53 223.467 560.36 223.552C560.018 223.723 559.72 224.107 559.464 224.704C559.208 225.301 559.08 225.984 559.08 226.752ZM640.735 280H617.695V223.04H597.087V207.04H661.343V223.04H640.735V280ZM723.547 281.664C710.832 281.664 701.275 278.677 694.875 272.704C688.56 266.645 685.403 256.96 685.403 243.648C685.403 230.592 688.901 221.077 695.899 215.104C702.896 209.131 712.155 206.144 723.675 206.144C747.909 206.144 760.027 218.219 760.027 242.368C760.027 254.571 757.04 264.171 751.067 271.168C745.179 278.165 736.005 281.664 723.547 281.664ZM723.035 266.56C725.424 266.56 727.429 266.176 729.051 265.408C730.672 264.555 731.952 263.104 732.891 261.056C734.683 257.557 735.579 251.84 735.579 243.904C735.579 236.139 734.683 230.507 732.891 227.008C731.099 223.424 727.813 221.547 723.035 221.376C721.243 221.376 719.365 221.589 717.403 222.016C715.525 222.357 714.331 222.869 713.819 223.552C712.795 224.747 711.984 227.307 711.387 231.232C710.875 235.072 710.619 239.296 710.619 243.904C710.619 251.072 711.301 256.32 712.667 259.648C713.605 262.123 714.928 263.915 716.635 265.024C718.341 266.048 720.475 266.56 723.035 266.56ZM769.957 207.04H822.309V222.912H792.997V237.376H817.189V251.328H792.997V280H769.957V207.04ZM533.793 408H512.289L510.625 367.808C510.369 359.872 510.07 353.856 509.729 349.76H509.345C508.321 353.003 507.126 358.037 505.761 364.864L505.121 368.064L496.289 408H474.785L467.361 372.032L466.081 365.632C464.289 357.696 463.051 352.405 462.369 349.76H461.985C461.643 354.027 461.345 360.981 461.089 370.624C461.003 371.221 460.961 372.16 460.961 373.44L459.809 408H438.177L441.249 335.04H477.857L484.129 366.528L485.665 374.976C486.347 372.331 486.987 369.387 487.585 366.144L493.473 335.04H530.849L533.793 408ZM613.312 335.04V375.872C613.312 384.32 612.373 390.933 610.496 395.712C608.704 400.405 605.29 403.861 600.256 406.08C595.221 408.299 587.882 409.408 578.24 409.408C571.157 409.408 565.184 408.683 560.32 407.232C555.456 405.696 551.573 402.837 548.672 398.656C545.856 394.475 544.448 388.587 544.448 380.992V335.04H567.488V376.128C567.488 380.651 567.701 384.107 568.128 386.496C568.64 388.8 569.749 390.592 571.456 391.872C573.162 393.067 575.765 393.664 579.264 393.664C581.397 393.664 583.402 393.451 585.28 393.024C587.157 392.597 588.437 391.957 589.12 391.104C589.888 390.08 590.272 386.368 590.272 379.968V335.04H613.312ZM646.455 354.752C646.455 356.544 647.351 357.952 649.143 358.976C651.02 360 653.921 361.109 657.847 362.304C662.54 363.84 666.38 365.333 669.367 366.784C672.439 368.235 675.084 370.496 677.303 373.568C679.607 376.64 680.759 380.651 680.759 385.6C680.759 401.472 670.433 409.408 649.783 409.408C646.369 409.408 642.188 409.109 637.239 408.512C632.375 407.915 627.937 407.147 623.927 406.208C624.097 404.416 624.439 401.813 624.951 398.4C625.548 394.901 626.103 392.299 626.615 390.592C629.601 391.019 634.081 391.531 640.055 392.128C646.113 392.725 650.679 393.024 653.751 393.024C655.543 393.024 656.609 392.896 656.951 392.64C657.463 392.299 657.847 391.744 658.103 390.976C658.444 390.123 658.615 389.397 658.615 388.8C658.615 387.093 657.804 385.813 656.183 384.96C654.561 384.021 651.788 382.912 647.863 381.632C643.169 380.181 639.287 378.688 636.215 377.152C633.143 375.616 630.455 373.227 628.151 369.984C625.847 366.741 624.695 362.475 624.695 357.184C624.695 353.429 625.548 349.76 627.255 346.176C628.961 342.507 630.711 340.032 632.503 338.752C633.868 337.813 636.684 336.917 640.951 336.064C645.217 335.211 649.228 334.784 652.983 334.784C662.54 334.784 670.348 335.68 676.407 337.472C676.321 339.179 676.023 341.525 675.511 344.512C675.084 347.499 674.615 350.229 674.103 352.704L671.159 352.576C660.065 351.808 652.983 351.424 649.911 351.424C648.631 351.424 647.905 351.467 647.735 351.552C647.393 351.723 647.095 352.107 646.839 352.704C646.583 353.301 646.455 353.984 646.455 354.752ZM691.466 335.04H714.506V408H691.466V335.04ZM784.679 405.568C781.521 406.933 777.852 407.915 773.671 408.512C769.489 409.109 765.607 409.408 762.023 409.408C750.417 409.408 741.329 406.379 734.759 400.32C728.188 394.261 724.903 384.96 724.903 372.416C724.903 359.616 728.359 350.059 735.271 343.744C742.183 337.344 751.911 334.144 764.455 334.144C770.428 334.144 776.657 334.955 783.143 336.576C783.143 338.283 782.972 340.843 782.631 344.256C782.289 347.584 781.948 349.931 781.607 351.296H773.543C767.655 351.296 763.004 351.424 759.591 351.68C756.263 351.851 754.257 352.235 753.575 352.832C752.295 354.027 751.313 356.459 750.631 360.128C749.948 363.712 749.607 367.168 749.607 370.496C749.607 376.299 750.332 380.779 751.783 383.936C753.233 387.008 755.068 389.056 757.287 390.08C759.42 391.104 762.961 391.616 767.911 391.616C771.836 391.616 776.956 391.275 783.271 390.592L784.679 405.568Z" fill="black"/>
<rect x="514.5" y="39.5" width="190" height="83" rx="41.5" fill="#02FF02" stroke="black" stroke-width="3"/>
<path d="M569.865 87.8828C569.865 85.9727 569.889 84.5312 569.936 83.5586C569.982 82.5742 570.105 81.1328 570.305 79.2344L568.266 78.9707C568.02 78.209 567.855 77.5293 567.773 76.9316C567.703 76.334 567.668 75.5605 567.668 74.6113C567.855 74.4473 568.166 74.2539 568.6 74.0312C569.045 73.7969 569.572 73.5977 570.182 73.4336C570.791 73.2578 571.406 73.1699 572.027 73.1699C573.445 73.1699 574.447 73.4746 575.033 74.084C575.631 74.6934 575.93 75.6074 575.93 76.8262C575.93 77.5059 575.83 78.4258 575.631 79.5859C575.303 81.4492 575.139 82.4277 575.139 82.5215C575.139 82.5801 575.18 82.6387 575.262 82.6973C575.344 82.7441 575.432 82.7676 575.525 82.7676C575.631 82.7676 575.701 82.7266 575.736 82.6445C576.205 80.7812 576.674 79.2227 577.143 77.9688C577.611 76.7148 578.32 75.6016 579.27 74.6289C580.219 73.6562 581.449 73.1699 582.961 73.1699C584.836 73.1699 586.184 73.7441 587.004 74.8926C587.824 76.0293 588.234 77.4648 588.234 79.1992C588.234 80.7461 588.053 82.2402 587.689 83.6816C587.326 85.1113 586.875 86.6055 586.336 88.1641C586.359 88.1055 586.277 88.334 586.09 88.8496L586.125 88.8848L588.691 87.8301C589.605 88.6152 590.139 89.6582 590.291 90.959C590.291 91.041 590.027 91.375 589.5 91.9609C588.984 92.5469 588.299 93.0918 587.443 93.5957C586.588 94.0996 585.604 94.3516 584.49 94.3516C583.377 94.3516 582.469 94.0527 581.766 93.4551C581.062 92.8574 580.711 91.8379 580.711 90.3965C580.711 89.248 580.758 87.7129 580.852 85.791C580.945 83.8691 581.039 82.3223 581.133 81.1504C580.828 80.8223 580.453 80.6465 580.008 80.623C579.598 81.1504 578.994 82.2051 578.197 83.7871C577.4 85.3691 576.838 86.5527 576.51 87.3379C576.486 87.502 576.475 87.6602 576.475 87.8125C576.475 88.3984 576.562 89.1895 576.738 90.1855C576.914 91.1699 577.131 92.0898 577.389 92.9453C577.178 93.3438 576.744 93.6777 576.088 93.9473C575.432 94.2168 574.623 94.3516 573.662 94.3516C572.795 94.3516 572.098 94.2812 571.57 94.1406C571.055 94 570.691 93.8535 570.48 93.7012C570.27 93.5371 570.164 93.4375 570.164 93.4023C570.152 93.2969 570.123 93.0215 570.076 92.5762C570.029 92.1191 569.982 91.4863 569.936 90.6777C569.889 89.8574 569.865 88.9258 569.865 87.8828ZM591.627 83.7871C591.627 81.7598 591.967 79.9492 592.646 78.3555C593.326 76.7617 594.375 75.502 595.793 74.5762C597.223 73.6387 599.004 73.1699 601.137 73.1699C602.25 73.1699 603.363 73.3047 604.477 73.5742C605.59 73.832 606.533 74.2656 607.307 74.875C608.021 75.4492 608.537 76.2109 608.854 77.1602C609.182 78.0977 609.346 79.1406 609.346 80.2891C609.346 81.0508 609.281 81.8301 609.152 82.627C609.012 82.8613 608.736 83.1719 608.326 83.5586C607.916 83.9336 607.436 84.3027 606.885 84.666C606.334 85.0293 605.801 85.3105 605.285 85.5098C604.793 85.5449 604.283 85.5625 603.756 85.5625C602.83 85.5625 601.893 85.5215 600.943 85.4395C599.994 85.3574 599.162 85.2637 598.447 85.1582C598.541 86.1543 598.846 87.0215 599.361 87.7598C599.877 88.498 600.697 88.8672 601.822 88.8672C601.928 88.8672 602.098 88.8555 602.332 88.832C603.047 88.7617 603.879 88.5742 604.828 88.2695C605.789 87.9531 606.744 87.5898 607.693 87.1797C608.139 87.625 608.467 88.0703 608.678 88.5156C608.889 88.9609 609.035 89.5996 609.117 90.4316C608.754 90.8535 608.162 91.3691 607.342 91.9785C606.533 92.5879 605.543 93.1387 604.371 93.6309C603.199 94.1113 601.975 94.3516 600.697 94.3516C598.775 94.3516 597.129 93.8887 595.758 92.9629C594.398 92.0254 593.367 90.7598 592.664 89.166C591.973 87.5605 591.627 85.7676 591.627 83.7871ZM602.947 79.7441C602.783 79.5684 602.508 79.4336 602.121 79.3398C601.734 79.2344 601.33 79.1816 600.908 79.1816C600.568 79.1816 600.223 79.2109 599.871 79.2695C599.531 79.3281 599.326 79.3926 599.256 79.4629C598.857 80.248 598.605 81.1387 598.5 82.1348L603.193 81.6777L602.947 79.7441ZM611.227 79.8145C610.875 78.8066 610.699 77.6172 610.699 76.2461C611.016 75.3672 611.537 74.6289 612.264 74.0312C612.99 73.4336 613.904 73.1348 615.006 73.1348C615.709 73.1348 616.318 73.2812 616.834 73.5742C617.35 73.8555 617.818 74.2891 618.24 74.875C618.885 75.7891 619.383 77.0547 619.734 78.6719C620.039 80.0898 620.291 81.748 620.49 83.6465C620.701 85.5332 620.807 87.3145 620.807 88.9902L621.492 89.0078C621.973 87.3906 622.359 85.8496 622.652 84.3848C622.945 82.9199 623.162 81.1738 623.303 79.1465L621.229 78.7422C621.053 78.1094 620.93 77.5645 620.859 77.1074C620.789 76.6387 620.754 76.1406 620.754 75.6133C620.754 75.3086 620.988 74.9629 621.457 74.5762C621.926 74.1777 622.529 73.8438 623.268 73.5742C624.018 73.3047 624.791 73.1699 625.588 73.1699C628.6 73.1699 630.105 74.6875 630.105 77.7227C630.105 78.6953 629.895 79.7617 629.473 80.9219C630.152 83.2656 630.656 85.9609 630.984 89.0078L631.301 89.0254C631.781 87.9004 632.215 86.377 632.602 84.4551C633 82.5215 633.199 80.7344 633.199 79.0938L631.477 78.7598C631.301 78.127 631.178 77.582 631.107 77.125C631.037 76.6562 631.002 76.1582 631.002 75.6309C631.002 75.3262 631.207 74.9805 631.617 74.5938C632.039 74.1953 632.596 73.8613 633.287 73.5918C633.979 73.3105 634.711 73.1699 635.484 73.1699C638.566 73.1699 640.107 74.7812 640.107 78.0039C640.107 79.9844 639.738 82.041 639 84.1738C638.262 86.3066 637.365 88.252 636.311 90.0098C635.256 91.7676 634.26 93.1328 633.322 94.1055C632.736 94.2695 632.104 94.3516 631.424 94.3516C630.615 94.3516 629.83 94.2402 629.068 94.0176C628.318 93.8066 627.709 93.4961 627.24 93.0859C627.158 92.8047 627.012 92.0312 626.801 90.7656C626.496 88.9844 626.262 87.7012 626.098 86.916H625.746C625.102 89.7285 624.152 92.084 622.898 93.9824C622.254 94.2285 621.428 94.3516 620.42 94.3516C619.564 94.3516 618.75 94.2578 617.977 94.0703C617.203 93.8945 616.623 93.6309 616.236 93.2793C616.084 92.2012 615.779 90.7363 615.322 88.8848C614.865 87.0332 614.361 85.2695 613.811 83.5938C613.271 81.918 612.797 80.7344 612.387 80.043L611.227 79.8145ZM642.357 67.1055C642.967 66.6836 643.852 66.3086 645.012 65.9805C646.172 65.6406 647.273 65.4707 648.316 65.4707C649.195 65.4707 649.91 65.6055 650.461 65.875C650.461 67.7617 650.35 70.1289 650.127 72.9766C649.904 75.8125 649.594 79.2695 649.195 83.3477C648.949 83.7695 648.562 84.1094 648.035 84.3672C647.52 84.6133 646.969 84.7363 646.383 84.7363C645.938 84.7363 645.51 84.6602 645.1 84.5078C644.689 84.3555 644.332 84.127 644.027 83.8223L642.357 67.1055ZM646.646 86.9512C648.193 86.9512 649.318 87.291 650.021 87.9707C650.736 88.6387 651.094 89.4824 651.094 90.502C651.094 91.1816 650.877 91.8203 650.443 92.418C650.021 93.0039 649.465 93.4727 648.773 93.8242C648.094 94.1758 647.385 94.3516 646.646 94.3516C645.908 94.3516 645.193 94.1758 644.502 93.8242C643.822 93.4727 643.266 93.0039 642.832 92.418C642.41 91.8203 642.199 91.1816 642.199 90.502C642.199 89.4824 642.551 88.6387 643.254 87.9707C643.969 87.291 645.1 86.9512 646.646 86.9512Z" fill="black"/>
<rect x="423.5" y="498.5" width="359" height="85" rx="42.5" fill="black" stroke="black"/>
<path d="M534.984 540.57C534.984 537.91 535.377 535.543 536.162 533.469C536.959 531.383 538.201 529.736 539.889 528.529C541.576 527.322 543.709 526.719 546.287 526.719C548.045 526.719 549.902 526.947 551.859 527.404C552.492 527.779 553.043 528.172 553.512 528.582C553.992 528.98 554.449 529.467 554.883 530.041C554.883 530.873 554.771 531.98 554.549 533.363C554.326 534.734 554.045 536.018 553.705 537.213C553.377 538.396 553.061 539.164 552.756 539.516C552.451 539.668 552.193 539.773 551.982 539.832C551.771 539.879 551.443 539.902 550.998 539.902C550.447 539.902 549.932 539.861 549.451 539.779C548.971 539.697 548.607 539.586 548.361 539.445L547.746 533.521C546.914 533.287 545.76 533.17 544.283 533.17C543.885 533.17 543.592 533.176 543.404 533.188C542.9 534.805 542.619 536.979 542.561 539.709C542.549 540.037 542.543 540.535 542.543 541.203C542.543 542.773 542.625 544.045 542.789 545.018C542.941 545.932 543.105 546.617 543.281 547.074C543.457 547.531 543.762 547.883 544.195 548.129C544.641 548.375 545.303 548.498 546.182 548.498C547.365 548.498 548.455 548.328 549.451 547.988C550.459 547.637 551.555 547.127 552.738 546.459C553.184 546.939 553.523 547.332 553.758 547.637C554.004 547.941 554.227 548.316 554.426 548.762C554.637 549.207 554.777 549.717 554.848 550.291C554.66 550.678 554.162 551.193 553.354 551.838C552.545 552.482 551.484 553.062 550.172 553.578C548.859 554.094 547.389 554.352 545.76 554.352C541.951 554.352 539.203 553.162 537.516 550.783C535.828 548.404 534.984 545 534.984 540.57ZM557.889 543.084C557.889 541.385 557.924 539.615 557.994 537.775C558.053 535.842 558.146 534.137 558.275 532.66H558.24L556.254 532.291C556.125 531.717 556.031 531.23 555.973 530.832C555.926 530.422 555.902 530 555.902 529.566C555.902 529.262 555.908 529.027 555.92 528.863C556.166 528.547 556.541 528.23 557.045 527.914C557.561 527.586 558.158 527.311 558.838 527.088C559.518 526.865 560.221 526.754 560.947 526.754C562.436 526.754 563.543 527.135 564.27 527.896C564.996 528.658 565.324 529.795 565.254 531.307L565.201 532.836C565.154 535.402 565.049 537.488 564.885 539.094H570.861C570.896 536.762 571.002 534.611 571.178 532.643H571.143L568.629 532.273C568.5 531.699 568.406 531.213 568.348 530.814C568.301 530.404 568.277 529.982 568.277 529.549C568.277 529.244 568.283 529.01 568.295 528.846C568.541 528.541 568.963 528.225 569.561 527.896C570.158 527.568 570.844 527.293 571.617 527.07C572.402 526.848 573.176 526.736 573.938 526.736C575.426 526.736 576.562 527.123 577.348 527.896C578.145 528.658 578.543 529.789 578.543 531.289C578.543 535.484 577.893 541.361 576.592 548.92L579.193 547.795C580.084 548.568 580.594 549.611 580.723 550.924C580.723 551.006 580.447 551.346 579.896 551.943C579.357 552.529 578.648 553.08 577.77 553.596C576.902 554.1 575.912 554.352 574.799 554.352C573.615 554.352 572.637 554.035 571.863 553.402C571.102 552.77 570.727 551.662 570.738 550.08V548.938C570.738 546.992 570.779 545.375 570.861 544.086C570.592 544.109 570.182 544.121 569.631 544.121C568.822 544.121 567.633 544.051 566.062 543.91C565.312 543.84 564.779 543.793 564.463 543.77C564.498 544.953 564.586 546.131 564.727 547.303C564.867 548.463 565.049 549.775 565.271 551.24C565.412 552.166 565.512 552.863 565.57 553.332C565.09 553.625 564.328 553.865 563.285 554.053C562.242 554.24 561.357 554.334 560.631 554.334C560.268 554.334 559.922 554.305 559.594 554.246C559.277 554.188 558.926 554.1 558.539 553.982C558.105 551.275 557.889 547.643 557.889 543.084ZM582.076 540.711C582.076 531.406 585.732 526.754 593.045 526.754C595.939 526.754 598.195 527.357 599.812 528.564C601.441 529.76 602.561 531.377 603.17 533.416C603.791 535.443 604.102 537.875 604.102 540.711C604.102 544.883 603.246 548.199 601.535 550.66C599.824 553.121 596.994 554.352 593.045 554.352C589.072 554.352 586.248 553.133 584.572 550.695C582.908 548.258 582.076 544.93 582.076 540.711ZM593.924 548.744C594.885 548.744 595.436 548.691 595.576 548.586C595.869 548.07 596.092 547.174 596.244 545.896C596.396 544.607 596.473 543.166 596.473 541.572C596.473 539.896 596.391 538.344 596.227 536.914C596.074 535.473 595.857 534.465 595.576 533.891C595.283 533.656 594.85 533.48 594.275 533.363C593.701 533.246 593.068 533.182 592.377 533.17C591.979 533.17 591.615 533.193 591.287 533.24C590.971 533.275 590.742 533.334 590.602 533.416C590.262 534.002 590.01 534.852 589.846 535.965C589.693 537.066 589.617 538.326 589.617 539.744C589.617 541.35 589.705 542.949 589.881 544.543C590.057 546.137 590.273 547.355 590.531 548.199C590.695 548.375 591.111 548.51 591.779 548.604C592.447 548.697 593.162 548.744 593.924 548.744ZM606.475 540.711C606.475 531.406 610.131 526.754 617.443 526.754C620.338 526.754 622.594 527.357 624.211 528.564C625.84 529.76 626.959 531.377 627.568 533.416C628.189 535.443 628.5 537.875 628.5 540.711C628.5 544.883 627.645 548.199 625.934 550.66C624.223 553.121 621.393 554.352 617.443 554.352C613.471 554.352 610.646 553.133 608.971 550.695C607.307 548.258 606.475 544.93 606.475 540.711ZM618.322 548.744C619.283 548.744 619.834 548.691 619.975 548.586C620.268 548.07 620.49 547.174 620.643 545.896C620.795 544.607 620.871 543.166 620.871 541.572C620.871 539.896 620.789 538.344 620.625 536.914C620.473 535.473 620.256 534.465 619.975 533.891C619.682 533.656 619.248 533.48 618.674 533.363C618.1 533.246 617.467 533.182 616.775 533.17C616.377 533.17 616.014 533.193 615.686 533.24C615.369 533.275 615.141 533.334 615 533.416C614.66 534.002 614.408 534.852 614.244 535.965C614.092 537.066 614.016 538.326 614.016 539.744C614.016 541.35 614.104 542.949 614.279 544.543C614.455 546.137 614.672 547.355 614.93 548.199C615.094 548.375 615.51 548.51 616.178 548.604C616.846 548.697 617.561 548.744 618.322 548.744ZM630.68 550.15C630.68 549.553 630.791 548.949 631.014 548.34C631.236 547.73 631.582 547.156 632.051 546.617C633.762 547.367 635.25 547.941 636.516 548.34C637.793 548.738 639.105 548.938 640.453 548.938C640.699 548.938 640.951 548.914 641.209 548.867C641.479 548.82 641.689 548.756 641.842 548.674C641.9 548.545 641.947 548.381 641.982 548.182C642.018 547.971 642.035 547.801 642.035 547.672C642.035 547.098 641.76 546.605 641.209 546.195C640.658 545.785 639.932 545.375 639.029 544.965L638.414 544.666C636.656 543.764 635.244 542.955 634.178 542.24C633.123 541.514 632.227 540.564 631.488 539.393C630.762 538.209 630.398 536.762 630.398 535.051C630.398 532.543 631.096 530.533 632.49 529.021C633.896 527.51 636.129 526.754 639.188 526.754C641.801 526.754 643.869 526.912 645.393 527.229C646.025 527.604 646.576 527.996 647.045 528.406C647.525 528.805 647.982 529.291 648.416 529.865C648.416 530.686 648.334 531.576 648.17 532.537C648.018 533.486 647.801 534.359 647.52 535.156C647.25 535.953 646.957 536.527 646.641 536.879C646.371 537.008 646.072 537.107 645.744 537.178C645.416 537.236 645.012 537.266 644.531 537.266C644.027 537.266 643.617 537.23 643.301 537.16C642.984 537.09 642.691 536.973 642.422 536.809L641.877 533.152C641.197 532.965 640.477 532.83 639.715 532.748C638.953 532.654 638.438 532.613 638.168 532.625C637.734 532.824 637.436 533.105 637.271 533.469C637.119 533.82 637.043 534.242 637.043 534.734C637.043 535.262 637.184 535.719 637.465 536.105C637.758 536.48 638.109 536.791 638.52 537.037C638.93 537.283 639.457 537.559 640.102 537.863L640.875 538.25C642.551 539.129 643.869 539.896 644.83 540.553C645.791 541.209 646.594 542.041 647.238 543.049C647.895 544.045 648.223 545.252 648.223 546.67C648.223 548.322 647.789 549.746 646.922 550.941C646.055 552.125 644.941 552.98 643.582 553.508C642.844 553.801 642.029 554.012 641.139 554.141C640.248 554.27 639.217 554.334 638.045 554.334C637.248 554.334 636.393 554.234 635.479 554.035C634.564 553.836 633.674 553.484 632.807 552.98C631.951 552.477 631.266 551.803 630.75 550.959C630.703 550.736 630.68 550.467 630.68 550.15ZM649.734 549.693C649.734 548.65 649.951 547.637 650.385 546.652C650.584 546.652 650.895 546.693 651.316 546.775C651.75 546.846 652.201 546.939 652.67 547.057C652.6 543.893 652.564 541.297 652.564 539.27C652.564 536.75 652.611 534.6 652.705 532.818L649.998 532.449C649.846 532.016 649.729 531.541 649.646 531.025C649.564 530.498 649.523 529.988 649.523 529.496C649.523 529.121 649.553 528.711 649.611 528.266C651.006 527.738 652.84 527.357 655.113 527.123C657.398 526.877 659.701 526.754 662.021 526.754C664.213 526.754 665.801 526.854 666.785 527.053C667.418 527.439 667.969 527.832 668.438 528.23C668.918 528.617 669.375 529.098 669.809 529.672C669.809 530.492 669.727 531.383 669.562 532.344C669.41 533.293 669.193 534.166 668.912 534.963C668.643 535.76 668.35 536.334 668.033 536.686C667.764 536.814 667.465 536.914 667.137 536.984C666.809 537.043 666.404 537.072 665.924 537.072C665.502 537.072 665.139 537.037 664.834 536.967C664.541 536.885 664.26 536.768 663.99 536.615L663.393 532.783C662.654 532.666 661.775 532.607 660.756 532.607C660.475 532.607 660.193 532.625 659.912 532.66C659.865 534.359 659.625 536.674 659.191 539.604C661.793 539.17 664.014 538.854 665.854 538.654C666.322 539.369 666.557 540.242 666.557 541.273C666.557 541.953 666.463 542.609 666.275 543.242C666.088 543.875 665.883 544.314 665.66 544.561C665.168 544.643 664.582 544.684 663.902 544.684C663.023 544.684 662.109 544.607 661.16 544.455C660.223 544.303 659.344 544.08 658.523 543.787L658.295 545.281C658.154 546.113 658.031 546.934 657.926 547.742L669.053 547.092C669.229 547.256 669.375 547.584 669.492 548.076C669.621 548.568 669.686 549.107 669.686 549.693C669.686 550.631 669.498 551.451 669.123 552.154C668.748 552.857 668.25 553.402 667.629 553.789C667.02 554.164 666.363 554.352 665.66 554.352C664.957 554.352 663.996 554.199 662.777 553.895C661.57 553.578 660.393 553.186 659.244 552.717C658.107 552.248 657.27 551.797 656.73 551.363C656.191 552.301 655.6 553.016 654.955 553.508C654.322 554 653.502 554.281 652.494 554.352C651.99 554.27 651.527 554.012 651.105 553.578C650.684 553.145 650.35 552.588 650.104 551.908C649.857 551.229 649.734 550.49 649.734 549.693Z" fill="#02FF02"/>
<path d="M692.939 555.061C693.525 555.646 694.475 555.646 695.061 555.061L704.607 545.515C705.192 544.929 705.192 543.979 704.607 543.393C704.021 542.808 703.071 542.808 702.485 543.393L694 551.879L685.515 543.393C684.929 542.808 683.979 542.808 683.393 543.393C682.808 543.979 682.808 544.929 683.393 545.515L692.939 555.061ZM692.5 532V554H695.5V532H692.5Z" fill="#02FF02"/>
<g clip-path="url(#clip0_189_384)">
<path d="M360 584.479C348.587 581.227 337.173 579.591 325.76 578.383C320.501 577.857 315.242 577.468 310.003 577.195C313.353 562.704 323.617 552.382 323.715 552.284C323.617 552.382 313.295 562.646 298.804 565.996C298.531 560.737 298.142 555.478 297.616 550.239C296.389 538.826 294.772 527.412 291.52 515.999C288.267 527.412 286.631 538.826 285.423 550.239C284.878 555.693 284.488 561.146 284.196 566.6C277.126 565.47 269.628 562.12 262.187 555.167C269.141 562.607 272.51 570.067 273.64 577.137C268.186 577.409 262.733 577.818 257.279 578.364C245.866 579.571 234.452 581.207 223.039 584.499C234.452 587.771 245.866 589.407 257.279 590.634C262.538 591.16 267.797 591.55 273.036 591.822C269.686 606.293 259.422 616.616 259.324 616.714C259.422 616.616 269.744 606.352 284.216 603.002C284.488 608.261 284.878 613.519 285.404 618.759C286.611 630.172 288.247 641.585 291.539 652.999C294.811 641.585 296.447 630.172 297.674 618.759C298.22 613.305 298.609 607.852 298.901 602.398C305.971 603.528 313.431 606.897 320.871 613.85C313.918 606.41 310.568 598.912 309.438 591.842C314.892 591.569 320.345 591.16 325.799 590.615C337.212 589.388 348.626 587.771 360.039 584.518L360 584.479Z" fill="black"/>
</g>
<g clip-path="url(#clip1_189_384)">
<path d="M934 -8.67936e-08C934 0.399666 933.893 66.9307 871 69.1155C933.92 71.1938 934 137.778 934 138.178C934 137.778 934.107 71.1938 997 69.1155C934.107 66.9307 934 0.399666 934 -8.67936e-08Z" fill="black"/>
</g>
<defs>
<clipPath id="clip0_189_384">
<rect width="137" height="137" fill="white" transform="translate(223 515.979)"/>
</clipPath>
<clipPath id="clip1_189_384">
<rect width="126" height="138.151" fill="white" transform="translate(871)"/>
</clipPath>
</defs>
</svg>
